<svg id="Layer_1" data-name="Layer 1" xmlns="http://www.w3.org/2000/svg" viewBox="0 0 746.74 136.44"><defs><style>.cls-1{fill:#b40710;}</style></defs><title>logo</title><path class="cls-1" d="M428.94,287.56a8,8,0,0,1-3.28,2.94,15.55,15.55,0,0,1-4,1.23,36.17,36.17,0,0,1-4.37.41,23.2,23.2,0,0,0-4.17.47,3.94,3.94,0,0,0,2.26.62c1,0,2.09.07,3.14.07a12.11,12.11,0,0,1,2.73.27c.77.18,1.07.55.89,1.09a3.37,3.37,0,0,1-1.3,1.64,7.77,7.77,0,0,1-1.84,1.23A35.17,35.17,0,0,1,411.8,299q-3.63.35-7.45.89a5.11,5.11,0,0,0,1.64.34c.64.05,1.14.07,1.51.07.18,0,.72-.07,1.63-.2s1.87-.3,2.87-.48,2-.34,2.87-.48a14.44,14.44,0,0,1,1.78-.2,3.24,3.24,0,0,1,2,.75c.64.5.87,1,.69,1.57s-.8,1.11-1.85,1.43a15.77,15.77,0,0,1-3.55.62c-1.32.09-2.55.13-3.69.13H408c-2.46.28-4.89.53-7.31.75a53.88,53.88,0,0,1-7.17.21q-1.9,6.28-3,9.15a28.21,28.21,0,0,1-1.37,3.28l-7,26.08a15.3,15.3,0,0,1-.27,1.71c-.19,1-.39,2-.62,3.07s-.43,2.1-.61,3a11.29,11.29,0,0,0-.28,1.77,10.37,10.37,0,0,0-.61,2,12.59,12.59,0,0,1-1,2.8c0,.1-.16.71-.47,1.85s-.69,2.41-1.1,3.82-.77,2.71-1.09,3.89a19.61,19.61,0,0,1-.61,2.05c-.19.37-.39.73-.62,1.1a7.31,7.31,0,0,0-.61,1.22l-3,11.34a2.35,2.35,0,0,1-1.7,1.84,9,9,0,0,1-1.71.35,7.78,7.78,0,0,1-.41,1.16,22,22,0,0,1-1,2.18,14.51,14.51,0,0,1-1.36,2.12,2.08,2.08,0,0,1-1.57.95,1.18,1.18,0,0,1-1-.54,1.27,1.27,0,0,1-.27-1.09,11.16,11.16,0,0,1,1-1.85,12.7,12.7,0,0,0,1-1.84l3.27-12.57c.09-.18.3-.72.62-1.64s.66-1.88,1-2.93l1-2.94a8.22,8.22,0,0,0,.48-1.64,21.3,21.3,0,0,0,.68-3.55c.27-1.91.45-3.64.55-5.19-.46,1.19-1,2.58-1.64,4.17l-1.23,3.07L364.47,380a23.62,23.62,0,0,0-.75,2.94,26.6,26.6,0,0,1-1.16,4h-1.91a2.25,2.25,0,0,1-.27-1.91c.18-.73.41-1.51.68-2.33s.52-1.57.75-2.25a2,2,0,0,0-.07-1.71,2,2,0,0,1-1.91-1.64,11.48,11.48,0,0,0-.55-2,11,11,0,0,1-1.5,2c-.64.68-1.32,1.34-2,2a1.53,1.53,0,0,1-.68.13,1.52,1.52,0,0,0-.68.14,3.27,3.27,0,0,1-.89.82,11.49,11.49,0,0,1-1.16.68,7,7,0,0,0-.48,1.23,4.24,4.24,0,0,1-.75,1.37,1.82,1.82,0,0,0-.48.34,1.68,1.68,0,0,1-2-.28,1.07,1.07,0,0,1-.14-1.16l6-22.39a5.57,5.57,0,0,0,.28-1.37c.09-.73.2-1.52.34-2.39s.27-1.66.41-2.39a12,12,0,0,1,.34-1.5l4.92-18.71c.09-.19.29-.69.61-1.51s.64-1.7,1-2.66.63-1.86.95-2.73a7.44,7.44,0,0,0,.48-1.57,6,6,0,0,0,.34-1.09q.21-.82.48-1.71c.18-.59.34-1.21.48-1.84a7.36,7.36,0,0,0,.2-1.51,11.12,11.12,0,0,0,.28-2.66,13.1,13.1,0,0,1,.13-2.25l2.73-9.7a1.31,1.31,0,0,0-1.16-.62,11.19,11.19,0,0,0-2,.07c-.78.09-1.58.21-2.4.34a13,13,0,0,1-2.18.21q-.56,0-3-.27c-1.64-.19-3.33-.46-5.06-.82A25.87,25.87,0,0,1,348,301.9c-1.32-.55-1.89-1.23-1.71-2a2.36,2.36,0,0,1,.61-1c.23-.19.43-.37.62-.55l2.8-.61c1-.23,2.05-.44,3-.62s1.82-.32,2.6-.41,1.25-.14,1.43-.14h10.11a2.41,2.41,0,0,1,.54-.41c.19-.08.19-.31,0-.68l-25.26.41a2.15,2.15,0,0,1-1.71-.89c-.32-.5-.89-.66-1.71-.47a8,8,0,0,0-.06-.82,1.88,1.88,0,0,1,.2-1.1,2.52,2.52,0,0,1,1.16-.88,4,4,0,0,1,1.3-.21,12.39,12.39,0,0,0,1.36-.07,3.14,3.14,0,0,0,1.37-.48.42.42,0,0,0-.14-.27c-.18-.18-.27-.32-.27-.41a4.24,4.24,0,0,0,.68-1.57,14.27,14.27,0,0,1,.34-1.43,3.26,3.26,0,0,1,.69-1.23,4,4,0,0,1,1.57-1,3.81,3.81,0,0,1-.55-1.64,3.18,3.18,0,0,1,2.87-1.5,24.88,24.88,0,0,0,4.23-.41l16.67-.41c.18,0,.84.05,2,.14s2.39.16,3.75.2,2.62.12,3.76.21,1.79.13,2,.13.82,0,1.91-.13,2.25-.16,3.48-.21,2.39-.11,3.49-.2,1.77-.14,2-.14,1.28.09,3.28.27l6.49.62q3.48.35,6.49.61c2,.19,3.09.28,3.28.28a15.74,15.74,0,0,0,1.57-.21c.86-.13,1.82-.29,2.86-.48s2-.34,2.87-.47a15.74,15.74,0,0,1,1.57-.21c1.28,0,1.87.37,1.78,1.09a7.09,7.09,0,0,0,.54,3,10.57,10.57,0,0,0,3.49.61A1.41,1.41,0,0,1,428.94,287.56Zm-69.52-2.46.27-.54H355.6l-.14.54Zm5.05,14.62-6.48.34c-1.05,0-1.76.07-2.12.07.73.18,1.66.36,2.8.54a17.94,17.94,0,0,0,2.39.27c.18,0,.66,0,1.43-.13A3,3,0,0,0,364.47,299.72Zm-3.68,61a15.64,15.64,0,0,0,.41-2.39c.18-1.42.38-3,.61-4.65s.43-3.23.62-4.64.27-2.26.27-2.53l4-14.48q-.69,1.51-1.5,3.69c-.55,1.46-1.07,2.89-1.57,4.3s-.94,2.67-1.3,3.76a11,11,0,0,0-.55,1.91,19.16,19.16,0,0,0-.48,2.73c-.22,1.64-.52,3.58-.88,5.81s-.75,4.55-1.16,7-.8,4.53-1.17,6.35c.28-.54.55-1.16.82-1.84s.55-1.37.82-2.05.5-1.3.69-1.84A7.7,7.7,0,0,1,360.79,360.77Zm2.86-76.08.14-.54-3.69.27-.13.68Zm6.7,28.82c.54-2,.95-3.6,1.23-4.78s.47-2.12.61-2.8.23-1.16.27-1.43a3.91,3.91,0,0,0,.07-.69,13.89,13.89,0,0,0-1.16,2.87q-.89,2.6-2.53,9.29a8.42,8.42,0,0,1,.82-1.23A3.54,3.54,0,0,0,370.35,313.51Zm19.66-9h-.68l-3.14,10.38h.68Zm20.63-15.3q-3.42.27-6,.41c-1.73.09-3.33.23-4.78.41h7.37a6.18,6.18,0,0,0,1.64-.27C409.5,289.56,410.09,289.38,410.64,289.2Zm-2.33,7.1.14-.55h-2.18l-.14.55Z" transform="translate(-339.26 -277.45)"/><path class="cls-1" d="M504.74,284.28a1.55,1.55,0,0,1-.48,1.16q-.48.48-2.25,2a15.88,15.88,0,0,0,.47,2.12,9.74,9.74,0,0,1,.41,2.19,3.15,3.15,0,0,1-.47,1.91,3,3,0,0,1-2.19,1.16,5.57,5.57,0,0,0,.34,1.71q.35,1-1,2a2.42,2.42,0,0,0,.95.82c.28.09.41.36.41.82a1.26,1.26,0,0,1-.61,1.09c-.41.27-.62.54-.62.82a13.42,13.42,0,0,0,0,3.82c.19,1.55.39,3.19.62,4.92s.36,3.44.41,5.12a21.14,21.14,0,0,1-.34,4.58,1,1,0,0,1,.13.4.36.36,0,0,1-.41.41c-.45,0-.63,0-.54-.13s0-.14-.14-.14a.69.69,0,0,0,0,1.09h.27a10.23,10.23,0,0,1-1,1.23,2.25,2.25,0,0,1-1.71.82,2.07,2.07,0,0,1-1.84-.89,5.93,5.93,0,0,1-.89-2,8.72,8.72,0,0,1-.27-2.11v-1.3l1.5-15.71h-38.1l-1,1c-.27.55-.71,1.48-1.3,2.8s-1.21,2.75-1.84,4.3-1.21,3-1.71,4.51a11.3,11.3,0,0,0-.75,3.28v1a7.78,7.78,0,0,0,3,.69h34.42l.55.41v1.5a3,3,0,0,1-1,.89,4.92,4.92,0,0,0-.88.47,1.83,1.83,0,0,1,.68,1.57,2.3,2.3,0,0,1-.89,1.37A9.88,9.88,0,0,1,484.8,327a11.66,11.66,0,0,1-2.05.82c.09.37.25.57.48.61a4.22,4.22,0,0,0,.88.07,4.61,4.61,0,0,1,1.1.14,1.6,1.6,0,0,1,1,.82v.14a.24.24,0,0,0,.07.2.28.28,0,0,1,.07.21,2.07,2.07,0,0,1-1,1.57,15.52,15.52,0,0,1-2.18,1.43,22.59,22.59,0,0,1-2.39,1.16c-.78.32-1.25.53-1.44.62.09.91.39,1.45.89,1.63a4.79,4.79,0,0,0,1.71.28,13.73,13.73,0,0,1,1.91.13,3.18,3.18,0,0,1,1.78,1,2.31,2.31,0,0,1-1.92,2.32,12.44,12.44,0,0,1-2.59.41,9.08,9.08,0,0,1-1.91-.34,10.12,10.12,0,0,0-2.46-.34h-15.3a1.69,1.69,0,0,0-1.29.75,2.39,2.39,0,0,1-1.17.89,14.78,14.78,0,0,1-3.62.13c-1.41-.09-2.34-.13-2.8-.13h-2.93a23.06,23.06,0,0,1-3.89-.28,20.25,20.25,0,0,0-2.19,7.38,44.55,44.55,0,0,1-1.5,7.78v.82l31.55,1.23,11.2-.82a1.28,1.28,0,0,1,.34.62,2.19,2.19,0,0,0,.2.61c-.09.28-.2.64-.34,1.1a4.92,4.92,0,0,0-.2,1.36,2.23,2.23,0,0,0,.34,1.23,1.82,1.82,0,0,0,1.43.68v1.51a1.72,1.72,0,0,1-.68.95,3,3,0,0,1-1.09.55,79.22,79.22,0,0,1-8.06.41,72.6,72.6,0,0,0-8.61.54,25.19,25.19,0,0,0,3.28.41c1.28.1,2.14.14,2.6.14h9.69a3.21,3.21,0,0,1,.55,2,3.8,3.8,0,0,1-.27,1.71,2.07,2.07,0,0,1-.75.75c-.32.18-.69.36-1.1.54a5.36,5.36,0,0,0-1.43,1.1,3.9,3.9,0,0,0-.41,2,1.92,1.92,0,0,1-1.5,1.84h-10a8.43,8.43,0,0,0-.75,3.28,34,34,0,0,0,.06,3.75c.09,1.32.21,2.64.35,4s.2,2.58.2,3.76a1.58,1.58,0,0,0-.27-1.09,1.94,1.94,0,0,0-.68,1,1.39,1.39,0,0,0,.27,1.44h.13v-.14a.4.4,0,0,0,.14-.27,3.08,3.08,0,0,1-1,1.57,2.18,2.18,0,0,1-1.16.61c-1.55,0-2.39-.86-2.53-2.59a34.59,34.59,0,0,1,.07-5.81,51.93,51.93,0,0,0,.2-5.8c0-1.73-.75-2.6-2.11-2.6-.37,0-.94.46-1.71,1.37a4.62,4.62,0,0,1-2.39,1.64,6.48,6.48,0,0,1-2.39.2,20.84,20.84,0,0,0-2.94.07,9.55,9.55,0,0,0-2.8,1,7.27,7.27,0,0,0-2.8,2.32,5.87,5.87,0,0,0-.95,3.14,19.22,19.22,0,0,0,0,3.41c.18,1.55.34,3.17.47,4.85a24.43,24.43,0,0,1-.06,4.85,4.2,4.2,0,0,1-1.57,2.66,4.26,4.26,0,0,1-2.67,1,2.79,2.79,0,0,1-2.8-1.71,12.16,12.16,0,0,1-.95-3.75,14.6,14.6,0,0,1,.06-3.76c.19-1.14.28-1.75.28-1.84.18-1.19.34-2.6.48-4.24a19,19,0,0,0-.21-4.78,5.63,5.63,0,0,0-2.73-4.37,8.21,8.21,0,0,0-4-1.36H413.23a3.83,3.83,0,0,1-.54-.76.8.8,0,0,1-.14-.75c0-.18-.16-.34-.48-.47s-.66-.3-1-.48v-1.64a8.59,8.59,0,0,0,1.91-1.64,8.16,8.16,0,0,1,1.91-1.64,6.11,6.11,0,0,0-2.46-.61,15.12,15.12,0,0,1-2.59-.35l-.41-.41V369.1a3.41,3.41,0,0,1,1.16-1,3,3,0,0,1,1.43-.41,1.45,1.45,0,0,1,.75.14,1.89,1.89,0,0,0,.89.13h1a4.46,4.46,0,0,0,.88-1.23,3.21,3.21,0,0,1,.89-1.09,14.57,14.57,0,0,1,1.78-.54l.13-.14a1.61,1.61,0,0,0,.28-.41q1.9-6.55,3.75-13.18T426.07,338c-.18-.18-.27-.32-.27-.41s-.23-.14-.69-.14a8.9,8.9,0,0,0-1.84.34,8.43,8.43,0,0,1-2,.34,2.91,2.91,0,0,1-1.91-.82V336a6.75,6.75,0,0,1,2.87-1.63c1.18-.37,2.32-.73,3.41-1.1-.18-.27-.87-.31-2.05-.13a3.84,3.84,0,0,0-.14-.82,5.22,5.22,0,0,1-.13-1.23,6.25,6.25,0,0,1,2.52-1.44,21.88,21.88,0,0,0,2.67-.88v-2.05a1.38,1.38,0,0,0-.82-.34,1.42,1.42,0,0,1-1-.62v-1.23a4.61,4.61,0,0,1,1.3-.89,2,2,0,0,0,1-.88c.37-1.19.8-2.62,1.3-4.31s1-3.43,1.44-5.25.84-3.64,1.16-5.47.56-3.5.75-5a1.37,1.37,0,0,0-.75-.34,1.37,1.37,0,0,1-.89-.75,1,1,0,0,0-.14-1.16,2.63,2.63,0,0,1-.54-1.3,2.48,2.48,0,0,0,.47-.68,2.81,2.81,0,0,1,.48-.69,4.43,4.43,0,0,0-1.64-.27,10.77,10.77,0,0,0-1.77.14,1.68,1.68,0,0,1-.41-.62,1.87,1.87,0,0,0-.41-.61,2.72,2.72,0,0,1,2.18-2,20,20,0,0,1,2.73-.21,1.86,1.86,0,0,0,.21-1.09,1.37,1.37,0,0,1,.2-1,3,3,0,0,1,1-.82l1.09-.54c-1.45-.18-2.91-.39-4.37-.62s-2.91-.43-4.37-.61a.47.47,0,0,0-.2-.41c-.14-.09-.21-.36-.21-.82s.43-.89,1.3-1.57a14.21,14.21,0,0,0,2-1.84,3.29,3.29,0,0,1,1.64-.14,2.69,2.69,0,0,0,1.5-.14,4.1,4.1,0,0,0,1.09-.82,2.45,2.45,0,0,1,1.1-.68,2.13,2.13,0,0,1,1.23.14,2.15,2.15,0,0,0,1.5,0,13,13,0,0,1,1.23-.69,6,6,0,0,1,1.5-.54c.91-.09,2-.18,3.28-.28s2.48-.13,3.62-.13H452l52.31.95a1.28,1.28,0,0,1,.34.62A6.19,6.19,0,0,1,504.74,284.28Zm-80.45,84.41-.13-.41-1.51.68v.55Zm2.87-17.62h-.54l-1.1,4.37h.55Zm6.28,3.82h-.54l-.82,2.46.41.27Zm6.42,30.73a6.17,6.17,0,0,0-.47-1.64c-.32-.82-.69-1.66-1.1-2.52A15.16,15.16,0,0,0,437,379.2a1.86,1.86,0,0,0-1.37-.95H434.4a4.21,4.21,0,0,1,2,1.16,12.18,12.18,0,0,1,1.64,2,11.49,11.49,0,0,1,1.16,2.25C439.45,384.44,439.68,385.08,439.86,385.62Zm-1.64-88.5v-.68l-3,.41v.54Zm1.51,16h-.55l-.41,1.5h.55Zm.82,90a16,16,0,0,1-.48-2.39c-.05-.5-.43-.93-1.16-1.29v1.77a1.49,1.49,0,0,0,.54,1.16A5.12,5.12,0,0,0,440.55,403.1Zm-.14-13.79h-.55l-.68,6.15h.55ZM443,297.39v-.54l-1.63-.28V297Zm2.6,103.8h-.41l-.41,1.64h.55ZM456,374.83a3.76,3.76,0,0,0-.27-1.16,1.17,1.17,0,0,0-1.23-.75,1.38,1.38,0,0,0-1.1.48,2.65,2.65,0,0,1-1.09.75,4.64,4.64,0,0,1-1.71.27,11.45,11.45,0,0,1-1.84-.13,1.28,1.28,0,0,1-.2.61,1.2,1.2,0,0,0-.21.62,7.16,7.16,0,0,0,1.64,1.36,3.92,3.92,0,0,0,1.91.82,5.1,5.1,0,0,0,1-.14,5.64,5.64,0,0,0,1.36-.47,4.72,4.72,0,0,0,1.23-.89A1.83,1.83,0,0,0,456,374.83Zm-3.82-1.77v-.69l-2.33.41v.55Zm11.47,5.19-.89-1.1a1.27,1.27,0,0,0-1-.41,2.35,2.35,0,0,0-1.17.55l-1.7,1.23a17.1,17.1,0,0,1-2,1.23,3.25,3.25,0,0,1-2,.41h2.59A.81.81,0,0,0,458,380a13.73,13.73,0,0,0,2.12-1.64,2.87,2.87,0,0,1,1.57-.95,1.94,1.94,0,0,1,1.16.34A4.87,4.87,0,0,0,463.63,378.25Zm17.48-16.67a.93.93,0,0,1-.68-.27l-.28-.27q-1.09.27-2.46.48a16.1,16.1,0,0,1-2,.2H459.39a7.26,7.26,0,0,0-1.84.34c-.77.23-1.39.44-1.84.62h15.7c.28,0,.78,0,1.51-.07s1.57-.14,2.52-.27l2.94-.41C479.38,361.79,480.29,361.68,481.11,361.58Zm-21-38v-.69h-3v.69Zm4.37,56.13v-.82h-.55v.82Zm.41.55h-.69l-.27,7.92h.55Zm.13,13.79a10.66,10.66,0,0,1-.41-1.71,4.61,4.61,0,0,0-.41-1.43,2.18,2.18,0,0,0-.06,1.5A2.63,2.63,0,0,0,465,394.09Zm13-69.24h-1.64l-.41.68h1.5Zm16.52-29.5a5.69,5.69,0,0,0-1.7-2.39,8.15,8.15,0,0,0-1.44-1.17h-1.5a5.73,5.73,0,0,0,2.19,1.3A4.41,4.41,0,0,1,494.49,295.35Zm1.1,26.63a3.47,3.47,0,0,0,.06-1.85,13.82,13.82,0,0,0-.47-2,5,5,0,0,0-.28,2.05C494.9,321.21,495.13,321.8,495.59,322Zm.54-22.13h-.54l-.41,10.93h.68Z" transform="translate(-339.26 -277.45)"/><path class="cls-1" d="M577.26,303.4a15.62,15.62,0,0,1-.41,3,31,31,0,0,0-.55,3.28,16.69,16.69,0,0,1-1,3.41,18.62,18.62,0,0,1-2.39,4.37c-.46.73-1,1.59-1.5,2.6s-1,1.91-1.51,2.73v.82c.37,0,.57-.07.62-.21a1.34,1.34,0,0,1,.34-.48c-.18,1-.43,2.1-.75,3.28a32.55,32.55,0,0,0-.75,3.55,17.2,17.2,0,0,0-.07,4.17c.14,1.59.25,3.16.34,4.71a34.22,34.22,0,0,1,0,4.3,4.5,4.5,0,0,1-1.09,2.94h-1.23A8.51,8.51,0,0,1,566,341c0-1.78.16-3.55.34-5.33a50.78,50.78,0,0,0,.28-5.12,6.55,6.55,0,0,0-1.64-4.37,11.47,11.47,0,0,0-2.8,3.21,5.8,5.8,0,0,0-.62,2.46V334a3,3,0,0,1-.82,1.91A3.29,3.29,0,0,1,560,334a8,8,0,0,0-.61-2.46c-1,.73-2,1.52-3.08,2.39s-2.07,1.71-3.07,2.52a17.4,17.4,0,0,0,.21,4c.22,1.42.38,2.71.47,3.9a10.47,10.47,0,0,0,.55,1.7c.27.69.5,1.26.68,1.71q1.36,7,2.74,14.2c.9,4.83,1.82,9.66,2.73,14.48a6.25,6.25,0,0,0,.68,1.71,3.89,3.89,0,0,1,.55,1.71.77.77,0,0,1-.41.75,1.91,1.91,0,0,0-.75.68,3.27,3.27,0,0,0-.48,1.43,6.74,6.74,0,0,0,.41,2.74,10.1,10.1,0,0,0-1.64,2.8,22.39,22.39,0,0,0-.89,2.86q-.35,1.44-.75,2.73a9.69,9.69,0,0,1-1.23,2.53,4.93,4.93,0,0,0-.82-.89,8,8,0,0,0-1-.75,3.29,3.29,0,0,0-.68-2,2.3,2.3,0,0,0-1.91-1.36,1.83,1.83,0,0,0-1.57.89,2.87,2.87,0,0,0-.62,1.57v8.74c0,.18,0,.61.07,1.29s.12,1.44.21,2.26.15,1.68.2,2.59.07,1.69.07,2.32l-.68-.68a.72.72,0,0,0,.07.89,1.78,1.78,0,0,1,.34,1,2.69,2.69,0,0,1-2.19,1.51c-1.18,0-1.82-.8-1.91-2.39a52.77,52.77,0,0,1,.07-5.94c.13-2.37.25-4.9.34-7.58a18.83,18.83,0,0,0-1.09-7.31,1.23,1.23,0,0,0-.48-.48,3.66,3.66,0,0,1-.62-.48,7.8,7.8,0,0,0-.2-1.64,4.05,4.05,0,0,0-.75-1.64l-1.3,1-1.3,1a1.47,1.47,0,0,1-1-1.09,9.79,9.79,0,0,1-.27-1.84c-.05-.69-.07-1.37-.07-2.05a5.66,5.66,0,0,0-.28-1.85,30.65,30.65,0,0,0-2.45-5.12,23,23,0,0,1-2.33-5.26,11.27,11.27,0,0,1-.61-3.48,11.26,11.26,0,0,0-.62-3.48c-.81-2.46-1.48-4.62-2-6.49s-.91-3.64-1.22-5.32-.6-3.35-.82-5-.53-3.37-.89-5.19c-1.19-.18-2.23-.32-3.14-.41s-2.32-.27-4.24-.55l-7,29.23v11.47a3.36,3.36,0,0,0-2.19-1.22,2.91,2.91,0,0,0-2,1A18.26,18.26,0,0,0,507.4,384a21.08,21.08,0,0,0-1.5,2.39,13.69,13.69,0,0,0-.75,1.57,11.72,11.72,0,0,0-1.16,5.4c0,1.86.15,3.69.34,5.46s.29,3.46.34,5.05a7.47,7.47,0,0,1-1.3,4.44h-1.23l-.95-1a12.42,12.42,0,0,1-.48-4.58c.13-1.41.32-2.8.54-4.16a30.13,30.13,0,0,0,.41-4.1,9.92,9.92,0,0,0-.75-4.1,1.86,1.86,0,0,1-1.36.55c-.64-.27-1-1.05-1-2.32a4.36,4.36,0,0,0-1.43,2.18,15.26,15.26,0,0,0-.48,2.46,14.45,14.45,0,0,0-.07,2.46,6.51,6.51,0,0,1-.2,2.18.44.44,0,0,1-.28.14.4.4,0,0,1-.27.14.38.38,0,0,0-.27.13,4,4,0,0,1-1-3.07,20,20,0,0,0-.2-3.76,6.94,6.94,0,0,1-.34-1.91,9.44,9.44,0,0,0-.35-2.05c-.18-.54-.45-1.27-.82-2.18s-.77-1.37-1.22-1.37a1.28,1.28,0,0,0-.89.21l-.48.48a1.34,1.34,0,0,1-.89-.48,1.5,1.5,0,0,1-.2-.75,7,7,0,0,1,.07-1,3.09,3.09,0,0,0-.07-1.09,3.65,3.65,0,0,1-.48.41,1.89,1.89,0,0,1-.89.13,1.11,1.11,0,0,1-.89-.27,3.52,3.52,0,0,0-.75-.68,14.57,14.57,0,0,1,.62-5.87,51.07,51.07,0,0,0,1.43-5.33.86.86,0,0,0,.41-.48,1.77,1.77,0,0,1,.41-.61c.46-1.46,1-3.28,1.64-5.47s1.32-4.53,2.05-7,1.43-5.05,2.12-7.65,1.34-5.07,2-7.44c.36-1.37.86-3,1.5-4.85s1.32-3.82,2.05-5.87,1.43-4.15,2.11-6.29,1.3-4.16,1.85-6.07q.68-2.32,1.5-5.12t1.5-5.6q.69-2.81,1.23-5.33c.36-1.68.64-3.12.82-4.3.18-1.55.32-3.26.41-5.12s.23-3.62.41-5.26a4.07,4.07,0,0,1,.89-1.78,2,2,0,0,1,1.43-.95c.46,0,.64.11.55.34s.09.34.54.34,1.14-.62,2-1.84a19.38,19.38,0,0,1,2.6-2.94,1.79,1.79,0,0,1,.82.89c.18.41.36.79.54,1.16a3.24,3.24,0,0,0,.76-1.78c.13-.82.7-1.23,1.7-1.23a14.58,14.58,0,0,1,1.3,1.5c.41.55.84,1.14,1.3,1.78a5.19,5.19,0,0,0,1.23-1.43c.27-.5.5-1,.68-1.37a3.31,3.31,0,0,1,.68-1,1.46,1.46,0,0,1,1.09-.41c.37,0,.89.41,1.58,1.23a2.4,2.4,0,0,1,.47,2.59v.82c.37,0,.57-.07.62-.21s.29-.2.75-.2a3.69,3.69,0,0,1,1.23.2,3,3,0,0,0,1.09.21v1.23h14.48a.86.86,0,0,0,.27-.62v-.88h3.83a3.92,3.92,0,0,1,1.91.34,7.5,7.5,0,0,0,2.46.48,37.8,37.8,0,0,1,4,.54,19.37,19.37,0,0,1,4.43,1.44,18.8,18.8,0,0,1,4.31,2.73,19.36,19.36,0,0,1,3.68,4.16q.55,1,1.23,2.46c.46,1,.89,2,1.3,3.08a22.5,22.5,0,0,1,1,3A10.94,10.94,0,0,1,577.26,303.4ZM496,356.67c-.55,2-1.19,4.1-1.92,6.28s-1.36,4.33-1.91,6.42c.36-.91.77-1.93,1.23-3.07s.89-2.28,1.3-3.42a34.09,34.09,0,0,0,1-3.34A8.14,8.14,0,0,0,496,356.67Zm.54,39.47H496l-.28,1.09.41.14Zm2-31.41H498l-1.36,4.91h.55Zm0,20.35-.55-.55-.4.41.54.41Zm2.46-1.23a12.89,12.89,0,0,0-.68-1.1,1.55,1.55,0,0,0-1.23-.82c-.46,0-.75.09-.89.28a5.82,5.82,0,0,1-.48.54v1.1a5.18,5.18,0,0,0,.68,1,1.38,1.38,0,0,0,1.1.48,1,1,0,0,0,.95-.48C500.68,384.55,500.87,384.21,501.05,383.85ZM501.6,347c-.19,1-.41,2-.69,3.14s-.5,2.05-.68,2.87c.36-1,.68-2.05,1-3.14A12.2,12.2,0,0,0,501.6,347Zm0,35.24-.41-1-.55.27.41.69Zm2.32,16.11V392h-.55v6.28Zm.27,5.06h-.55l-.27,3.55h.55ZM504.6,369v-1h-.55v1Zm.27-1.37v-.95h-.54v.95Zm3.69-14.2H508l-3.27,12.84h.41ZM507.74,381c-.73.91-1.41,1.84-2.05,2.8a3.86,3.86,0,0,0-.82,2.52,25.44,25.44,0,0,1,1.37-2.59Q507.07,382.35,507.74,381Zm1.5-12v-1.23h-.54V369Zm.28-1.37v-.95H509v.95Zm13.93-82.21v-3.56l-9.56,32.1a23,23,0,0,0,3.62-7.1q1-3.56,2-7.1l.75-2.33c.41-1.27.86-2.66,1.36-4.16s.94-3,1.3-4.51A16.2,16.2,0,0,0,523.45,285.38Zm-3.83-1.64v-1.23h-.54v1.23Zm30.87,28.13a4.79,4.79,0,0,0-1.71-3.62,13.25,13.25,0,0,0-4.09-2.52,26.88,26.88,0,0,0-4.85-1.44,21.47,21.47,0,0,0-3.83-.48c-.18,0-.57,0-1.16.07s-1.23.12-1.91.21-1.39.2-2.12.34a12.64,12.64,0,0,0-1.91.48q-1,6.13-2,10.72t-2.32,9.63h7.79a9,9,0,0,0,1.29-.21l2.39-.48,2.73-.54c.91-.19,1.69-.37,2.33-.55a10.83,10.83,0,0,0,2.39-1,8.45,8.45,0,0,0,2-1.36,13.55,13.55,0,0,0,2.66-3.42,11.49,11.49,0,0,0,1.43-3.68,8,8,0,0,1,.62-1A2,2,0,0,0,550.49,311.87Zm-18,30.18h-1.23a4.63,4.63,0,0,0,.28,1.51,5.67,5.67,0,0,0,.54,1.23,2,2,0,0,1-.07-1.37A7.19,7.19,0,0,1,532.46,342.05Zm3.55-49.3a11.84,11.84,0,0,0-1.91.14,11.94,11.94,0,0,1-1.91.13c.45,0,1.07,0,1.84.07s1.16-.07,1.16-.34H536Zm-2.59-3.41v-.55h-.82v.55ZM535.06,360v-1.23a5.23,5.23,0,0,0-.48-1.85c-.32-.77-.66-1.52-1-2.25a15.1,15.1,0,0,1,.89,2.66C534.67,358.24,534.87,359.13,535.06,360Zm2.46-70.89-1.92-.54-.41.54Zm7.92,99.43a27.25,27.25,0,0,0-1.37-2.87A14.66,14.66,0,0,0,542.3,383c.45.91,1,1.86,1.63,2.87S545.07,387.76,545.44,388.49Zm.54,1.09v-.82h-.54v.82Zm4.78-87.41a6.63,6.63,0,0,0-2.25-1.57q-1.57-.75-2.25-1a16,16,0,0,0,2.32,1.36A21.79,21.79,0,0,1,550.76,302.17ZM546.94,412a6.68,6.68,0,0,0-.07-2.12,10,10,0,0,0-.48-1.84,8.34,8.34,0,0,0,0,2.12A4.71,4.71,0,0,0,546.94,412Zm0-9.7v-6.82h-.55v6.82Zm8.6-15.57a9.94,9.94,0,0,0-1-2.93,27.43,27.43,0,0,1-1.44-3.76,5.82,5.82,0,0,0-.54-.48,1.74,1.74,0,0,0-1-.2,1.64,1.64,0,0,0-1.64,1.37,4.65,4.65,0,0,0-.27,2,1.54,1.54,0,0,1-.34.48,1.3,1.3,0,0,0-.21.89,4.64,4.64,0,0,0,1.3,3,4.06,4.06,0,0,0,3.21,1.51,3.25,3.25,0,0,0,1.16-.34C555.29,388.06,555.54,387.53,555.54,386.71Zm-4.23-32.77-.27-2.87h-.69l.41,2.87Zm3.28-23.63-.28-.55-2.45,1.5v.41Zm1.64-1.09-.14-.41-1.5.68V330Zm5.46-25.82a14.5,14.5,0,0,0-1.84-4.91,5.53,5.53,0,0,0-4-2.87,30.48,30.48,0,0,1,3.62,4.1A15,15,0,0,1,561.69,303.4Zm-4.1,24.86-.27-.41-1.23.68.27.55Zm.68,54.36v-2.19h-.54v2.19Zm3.42-49h-.55l-.41,1.23.55.13Zm1.91-10.93-.41-.55-.41.41.55.41Zm2.6-1.23a11.31,11.31,0,0,0-.76-1.09,1.66,1.66,0,0,0-1.29-.82c-.46,0-.73.09-.82.27a2,2,0,0,1-.41.55v1.09a5,5,0,0,0,.68,1,1.35,1.35,0,0,0,1.09.47,1,1,0,0,0,1-.47C565.83,322.14,566,321.8,566.2,321.43Zm.41-1.64-.41-1-.41.27.41.68Zm2.45,16.12v-6.28h-.68v6.28Zm.28,5h-.55l-.41,3.55h.55Zm4-40.15-.68-1.91-.55.13.82,1.78Z" transform="translate(-339.26 -277.45)"/><path class="cls-1" d="M655.79,303.4a15.62,15.62,0,0,1-.41,3,31,31,0,0,0-.55,3.28,16.69,16.69,0,0,1-1,3.41,18.62,18.62,0,0,1-2.39,4.37c-.46.73-1,1.59-1.5,2.6s-1,1.91-1.51,2.73v.82c.37,0,.57-.07.62-.21a1.34,1.34,0,0,1,.34-.48c-.18,1-.43,2.1-.75,3.28a32.55,32.55,0,0,0-.75,3.55,17.2,17.2,0,0,0-.07,4.17c.14,1.59.25,3.16.34,4.71a34.22,34.22,0,0,1,0,4.3,4.5,4.5,0,0,1-1.09,2.94h-1.23a8.59,8.59,0,0,1-1.3-4.85c.05-1.78.16-3.55.34-5.33a50.78,50.78,0,0,0,.28-5.12,6.55,6.55,0,0,0-1.64-4.37,11.47,11.47,0,0,0-2.8,3.21,5.8,5.8,0,0,0-.62,2.46V334a3,3,0,0,1-.82,1.91,3.29,3.29,0,0,1-.75-1.91,8,8,0,0,0-.61-2.46c-1,.73-2,1.52-3.07,2.39l-3.08,2.52a17.4,17.4,0,0,0,.21,4c.22,1.42.38,2.71.48,3.9a9.41,9.41,0,0,0,.54,1.7c.27.69.5,1.26.68,1.71q1.37,7,2.74,14.2c.9,4.83,1.82,9.66,2.73,14.48a6.59,6.59,0,0,0,.68,1.71,3.89,3.89,0,0,1,.55,1.71.77.77,0,0,1-.41.75,1.91,1.91,0,0,0-.75.68,3.27,3.27,0,0,0-.48,1.43,6.74,6.74,0,0,0,.41,2.74,10.1,10.1,0,0,0-1.64,2.8,22.39,22.39,0,0,0-.89,2.86q-.35,1.44-.75,2.73a9.69,9.69,0,0,1-1.23,2.53,4.93,4.93,0,0,0-.82-.89,8,8,0,0,0-1-.75,3.29,3.29,0,0,0-.68-2,2.29,2.29,0,0,0-1.91-1.36,1.83,1.83,0,0,0-1.57.89,2.87,2.87,0,0,0-.62,1.57v8.74c0,.18,0,.61.07,1.29s.12,1.44.21,2.26.16,1.68.2,2.59.07,1.69.07,2.32l-.68-.68a.72.72,0,0,0,.07.89,1.78,1.78,0,0,1,.34,1,2.69,2.69,0,0,1-2.19,1.51c-1.18,0-1.82-.8-1.91-2.39a52.77,52.77,0,0,1,.07-5.94q.21-3.56.34-7.58a18.83,18.83,0,0,0-1.09-7.31,1.16,1.16,0,0,0-.48-.48,3.66,3.66,0,0,1-.62-.48,7.8,7.8,0,0,0-.2-1.64,4.05,4.05,0,0,0-.75-1.64l-1.3,1-1.3,1a1.47,1.47,0,0,1-1-1.09,9.79,9.79,0,0,1-.27-1.84c0-.69-.07-1.37-.07-2.05a5.94,5.94,0,0,0-.27-1.85,31.52,31.52,0,0,0-2.46-5.12,22.55,22.55,0,0,1-2.32-5.26,11.26,11.26,0,0,1-.62-3.48,11.57,11.57,0,0,0-.61-3.48c-.82-2.46-1.49-4.62-2-6.49s-.92-3.64-1.23-5.32-.6-3.35-.82-5-.53-3.37-.89-5.19c-1.19-.18-2.23-.32-3.14-.41s-2.32-.27-4.24-.55l-7,29.23v11.47a3.36,3.36,0,0,0-2.19-1.22,2.93,2.93,0,0,0-2,1,18.26,18.26,0,0,0-1.91,2.25,21.08,21.08,0,0,0-1.5,2.39,13.69,13.69,0,0,0-.75,1.57,11.72,11.72,0,0,0-1.16,5.4c0,1.86.15,3.69.34,5.46s.29,3.46.34,5.05a7.47,7.47,0,0,1-1.3,4.44h-1.23l-.95-1a12.42,12.42,0,0,1-.48-4.58c.14-1.41.32-2.8.55-4.16a31.78,31.78,0,0,0,.4-4.1,9.92,9.92,0,0,0-.75-4.1,1.86,1.86,0,0,1-1.36.55c-.64-.27-1-1.05-1-2.32a4.36,4.36,0,0,0-1.43,2.18,15.26,15.26,0,0,0-.48,2.46,14.45,14.45,0,0,0-.07,2.46,6.51,6.51,0,0,1-.2,2.18.44.44,0,0,1-.28.14.4.4,0,0,1-.27.14.38.38,0,0,0-.27.13,4,4,0,0,1-1-3.07,20,20,0,0,0-.2-3.76,6.94,6.94,0,0,1-.34-1.91,10.09,10.09,0,0,0-.34-2.05c-.19-.54-.46-1.27-.82-2.18s-.78-1.37-1.23-1.37a1.3,1.3,0,0,0-.89.21l-.48.48a1.34,1.34,0,0,1-.89-.48,1.5,1.5,0,0,1-.2-.75,7,7,0,0,1,.07-1,3.09,3.09,0,0,0-.07-1.09,3.65,3.65,0,0,1-.48.41,1.89,1.89,0,0,1-.89.13,1.11,1.11,0,0,1-.89-.27,3.52,3.52,0,0,0-.75-.68,14.57,14.57,0,0,1,.62-5.87,51.07,51.07,0,0,0,1.43-5.33.86.86,0,0,0,.41-.48,1.77,1.77,0,0,1,.41-.61c.46-1.46,1-3.28,1.64-5.47s1.32-4.53,2-7,1.43-5.05,2.12-7.65,1.34-5.07,2-7.44c.36-1.37.86-3,1.5-4.85s1.32-3.82,2-5.87,1.43-4.15,2.11-6.29,1.3-4.16,1.85-6.07q.67-2.32,1.5-5.12t1.5-5.6q.69-2.81,1.23-5.33c.36-1.68.64-3.12.82-4.3.18-1.55.32-3.26.41-5.12s.23-3.62.41-5.26a4.07,4.07,0,0,1,.89-1.78,2,2,0,0,1,1.43-.95c.46,0,.64.11.55.34s.09.34.55.34,1.13-.62,2-1.84a19.38,19.38,0,0,1,2.6-2.94,1.79,1.79,0,0,1,.82.89c.18.41.36.79.54,1.16a3.24,3.24,0,0,0,.76-1.78c.13-.82.7-1.23,1.7-1.23a14.58,14.58,0,0,1,1.3,1.5c.41.55.84,1.14,1.3,1.78a5.19,5.19,0,0,0,1.23-1.43c.27-.5.5-1,.68-1.37a3.31,3.31,0,0,1,.68-1,1.47,1.47,0,0,1,1.1-.41c.36,0,.88.41,1.57,1.23a2.4,2.4,0,0,1,.47,2.59v.82c.37,0,.57-.07.62-.21s.29-.2.75-.2a3.69,3.69,0,0,1,1.23.2,3,3,0,0,0,1.09.21v1.23h14.48a.86.86,0,0,0,.27-.62v-.88h3.83a3.92,3.92,0,0,1,1.91.34,7.5,7.5,0,0,0,2.46.48,37.8,37.8,0,0,1,4,.54,19.6,19.6,0,0,1,4.44,1.44,19,19,0,0,1,4.3,2.73,19.67,19.67,0,0,1,3.69,4.16c.36.64.77,1.46,1.22,2.46s.89,2,1.3,3.08a22.5,22.5,0,0,1,1,3A10.94,10.94,0,0,1,655.79,303.4Zm-81.26,53.27c-.55,2-1.19,4.1-1.92,6.28s-1.36,4.33-1.91,6.42c.37-.91.78-1.93,1.23-3.07s.89-2.28,1.3-3.42a34.09,34.09,0,0,0,1-3.34A8.14,8.14,0,0,0,574.53,356.67Zm.54,39.47h-.54l-.28,1.09.41.14Zm2-31.41h-.54l-1.37,4.91h.55Zm0,20.35-.54-.55-.41.41.54.41Zm2.46-1.23a12.89,12.89,0,0,0-.68-1.1,1.55,1.55,0,0,0-1.23-.82c-.46,0-.75.09-.89.28a5.82,5.82,0,0,1-.48.54v1.1a4.82,4.82,0,0,0,.69,1,1.35,1.35,0,0,0,1.09.48,1,1,0,0,0,.95-.48C579.22,384.55,579.4,384.21,579.58,383.85Zm.55-36.88c-.19,1-.41,2-.69,3.14s-.5,2.05-.68,2.87c.36-1,.68-2.05,1-3.14A12.2,12.2,0,0,0,580.13,347Zm0,35.24-.41-1-.55.27.41.69Zm2.32,16.11V392h-.55v6.28Zm.27,5.06h-.54l-.28,3.55h.55Zm.41-34.42v-1h-.55v1Zm.27-1.37v-.95h-.54v.95Zm3.69-14.2h-.54l-3.28,12.84h.41ZM586.27,381c-.73.91-1.41,1.84-2,2.8a3.86,3.86,0,0,0-.82,2.52,25.44,25.44,0,0,1,1.37-2.59Q585.6,382.35,586.27,381Zm1.5-12v-1.23h-.54V369Zm.28-1.37v-.95h-.55v.95ZM602,285.38v-3.56l-9.56,32.1a23,23,0,0,0,3.62-7.1q1-3.56,2-7.1l.75-2.33c.41-1.27.86-2.66,1.36-4.16s.94-3,1.3-4.51A16.2,16.2,0,0,0,602,285.38Zm-3.83-1.64v-1.23h-.54v1.23ZM629,311.87a4.79,4.79,0,0,0-1.71-3.62,13.25,13.25,0,0,0-4.09-2.52,26.88,26.88,0,0,0-4.85-1.44,21.47,21.47,0,0,0-3.83-.48c-.18,0-.57,0-1.16.07s-1.23.12-1.91.21-1.39.2-2.12.34a12.64,12.64,0,0,0-1.91.48q-1,6.13-2.05,10.72t-2.32,9.63h7.79a9,9,0,0,0,1.29-.21l2.39-.48,2.74-.54c.9-.19,1.68-.37,2.32-.55a10.83,10.83,0,0,0,2.39-1,8.45,8.45,0,0,0,2-1.36,13.55,13.55,0,0,0,2.66-3.42,11.49,11.49,0,0,0,1.43-3.68,8,8,0,0,1,.62-1A1.92,1.92,0,0,0,629,311.87Zm-18,30.18h-1.23a4.63,4.63,0,0,0,.28,1.51,5.67,5.67,0,0,0,.54,1.23,2,2,0,0,1-.07-1.37A7.19,7.19,0,0,1,611,342.05Zm3.55-49.3a11.84,11.84,0,0,0-1.91.14,11.85,11.85,0,0,1-1.91.13c.45,0,1.07,0,1.84.07s1.16-.07,1.16-.34h.82ZM612,289.34v-.55h-.82v.55ZM613.59,360v-1.23a5.23,5.23,0,0,0-.48-1.85q-.48-1.15-1-2.25a16,16,0,0,1,.88,2.66C613.2,358.24,613.4,359.13,613.59,360Zm2.46-70.89-1.92-.54-.41.54ZM624,388.49a27.25,27.25,0,0,0-1.37-2.87,14.14,14.14,0,0,0-1.77-2.59c.45.91,1,1.86,1.63,2.87S623.6,387.76,624,388.49Zm.54,1.09v-.82H624v.82Zm4.78-87.41A6.63,6.63,0,0,0,627,300.6q-1.57-.75-2.25-1a16,16,0,0,0,2.32,1.36A21.79,21.79,0,0,1,629.29,302.17ZM625.47,412a6.68,6.68,0,0,0-.07-2.12,10,10,0,0,0-.48-1.84,8.34,8.34,0,0,0,0,2.12A4.71,4.71,0,0,0,625.47,412Zm0-9.7v-6.82h-.55v6.82Zm8.6-15.57a9.94,9.94,0,0,0-1-2.93,26,26,0,0,1-1.43-3.76c-.19-.18-.37-.34-.55-.48a1.71,1.71,0,0,0-1-.2,1.64,1.64,0,0,0-1.64,1.37,4.65,4.65,0,0,0-.27,2,1.54,1.54,0,0,1-.34.48,1.3,1.3,0,0,0-.21.89,4.64,4.64,0,0,0,1.3,3,4.07,4.07,0,0,0,3.21,1.51,3.2,3.2,0,0,0,1.16-.34C633.82,388.06,634.07,387.53,634.07,386.71Zm-4.23-32.77-.27-2.87h-.69l.41,2.87Zm3.28-23.63-.28-.55-2.45,1.5v.41Zm1.64-1.09-.14-.41-1.5.68V330Zm5.46-25.82a14.5,14.5,0,0,0-1.84-4.91,5.51,5.51,0,0,0-4-2.87,30.48,30.48,0,0,1,3.62,4.1A15,15,0,0,1,640.22,303.4Zm-4.1,24.86-.27-.41-1.23.68.27.55Zm.69,54.36v-2.19h-.55v2.19Zm3.41-49h-.55l-.41,1.23.55.13Zm1.91-10.93-.41-.55-.41.41.55.41Zm2.6-1.23a9.09,9.09,0,0,0-.75-1.09,1.69,1.69,0,0,0-1.3-.82c-.46,0-.73.09-.82.27a2,2,0,0,1-.41.55v1.09a5,5,0,0,0,.68,1,1.37,1.37,0,0,0,1.09.47,1,1,0,0,0,1-.47C644.36,322.14,644.54,321.8,644.73,321.43Zm.41-1.64-.41-1-.41.27.41.68Zm2.46,16.12v-6.28h-.69v6.28Zm.27,5h-.55l-.41,3.55h.55Zm4-40.15-.68-1.91-.55.13.82,1.78Z" transform="translate(-339.26 -277.45)"/><path class="cls-1" d="M731.18,307a5.29,5.29,0,0,1-.2,1.3,15,15,0,0,0-.35,1.57,22.84,22.84,0,0,1,.14,6.63,49.33,49.33,0,0,1-1.43,7.23q-1,3.76-2.53,7.72t-3.14,7.92a50.53,50.53,0,0,0-1.85,6.28,50.08,50.08,0,0,1-2.66,8.06c-.54,1.28-1.25,2.71-2.12,4.31a18.48,18.48,0,0,1-3.21,4.3,74.14,74.14,0,0,1-6.82,6.28q-3.56,2.86-7.38,5.87a2.75,2.75,0,0,1-.14,1.91,8.16,8.16,0,0,1-1.09,1.85c-.45.59-.95,1.21-1.5,1.84s-1,1.28-1.5,1.91a11.88,11.88,0,0,0-1.78,4.1,34,34,0,0,0-.75,4.71c-.14,1.6-.23,3.17-.27,4.72a15.42,15.42,0,0,1-.62,4.09,3.94,3.94,0,0,0-.82.14,2,2,0,0,1-1.23-.14c-.18-1.64-.29-3.34-.34-5.12a32,32,0,0,0-.48-5,2.41,2.41,0,0,0-.81-1.3c-.46-.41-1-.84-1.51-1.3-.18-.09-.25-.14-.2-.14H686a2.18,2.18,0,0,0-2.11,1.71,13.71,13.71,0,0,0-.75,3.76,29.13,29.13,0,0,0,.27,5.46c.18,2.09.27,4.26.27,6.49v6.35c0-.09-.09-.23-.27-.41a1.24,1.24,0,0,0-.14,1,6,6,0,0,1,.14,1.3,3.3,3.3,0,0,1-.88,1,2.14,2.14,0,0,1-1.3.47c-.72,0-1.29-.5-1.7-1.5a23.55,23.55,0,0,1-.88-2.46,7.13,7.13,0,0,1-.07-3.28,28.33,28.33,0,0,0,.48-3.27q.4-3.56.61-7.24A24.88,24.88,0,0,0,679,389a26.29,26.29,0,0,0-1.57-4.24q-1-2.19-2.11-4.09a59.1,59.1,0,0,0-6.73-.21,16.7,16.7,0,0,1-6.46-1,11.88,11.88,0,0,1-2.25-1.37q-1.29-1-2.79-2.25c-1-.87-2-1.78-3-2.73a32.11,32.11,0,0,1-2.72-2.94,10.13,10.13,0,0,1-.75-1.64c-.32-.82-.64-1.75-.95-2.8s-.59-2.07-.82-3.07a12.06,12.06,0,0,1-.34-2.46,4.54,4.54,0,0,1,.07-.82,10,10,0,0,0,.07-1.5c0-.73,0-1.82.07-3.28s.06-3.5.06-6.15q.82-4,1.57-8.26c.5-2.87,1.06-5.48,1.7-7.85a59.69,59.69,0,0,1,2.79-7.92,11.32,11.32,0,0,0,1.29-5.6,2.52,2.52,0,0,1,.48-1.3,4.74,4.74,0,0,0,.61-1.3,29.19,29.19,0,0,1,2.24-5,52.8,52.8,0,0,1,3.2-4.85q2-2.73,4.08-5.94t4.36-6.22a10.21,10.21,0,0,1,3.87-3,15.06,15.06,0,0,0,3.88-2.46,17.56,17.56,0,0,0,2.45-2.8,14.46,14.46,0,0,1,3-3.07,4.7,4.7,0,0,1,2-1,12.58,12.58,0,0,0,2.19-.68,25.63,25.63,0,0,1,4.1-1.71,9.72,9.72,0,0,1,6.35.07,36.1,36.1,0,0,0,3.62.82l4,.61c1.45.23,2.91.48,4.37.75a10.46,10.46,0,0,1,1.91.69,5.19,5.19,0,0,0,1.91.54c.46,0,.71,0,.75-.13s.3-.14.75-.14a7.67,7.67,0,0,1,2.33.62c1.09.4,2.13.84,3.14,1.29a16.57,16.57,0,0,1,3.62,2.67,33.42,33.42,0,0,1,3.48,3.75,4.31,4.31,0,0,1,.89,2.05c.13.82.29,1.59.47,2.32a23.28,23.28,0,0,1,1,5.81ZM654,357.62l-.81-4.91h-.55l.82,4.91Zm3.28-20.35q-.13,3.56-.41,7a30.91,30.91,0,0,0,0,5.8c0-2.09.12-4.25.34-6.49A33,33,0,0,0,657.29,337.27Zm5.47-20.76c-.37,1.1-.82,2.35-1.37,3.76s-1.09,2.78-1.64,4.1-1,2.48-1.36,3.48a8.86,8.86,0,0,0-.55,1.78v1.09a32.51,32.51,0,0,0,3.21-7.1A69.67,69.67,0,0,0,662.76,316.51Zm5.6,21.45v-4.24h-.69V338Zm1.5-13.39a43.86,43.86,0,0,0-1.91,6.56,14.83,14.83,0,0,0,.95-3.35A12.3,12.3,0,0,1,669.86,324.57Zm8.63-27.86a36.88,36.88,0,0,0-5.6,5.81,19,19,0,0,0-3.17,6.07c1.62-2,3.17-4,4.65-6.07S677.23,298.53,678.49,296.71ZM672,359a22,22,0,0,1-1.16-2.8c-.32-1-.57-1.8-.75-2.53v3.83a1.73,1.73,0,0,0,.82.95Zm6.31,6.69a23.26,23.26,0,0,1-3-.2c-1-.14-2-.3-2.87-.48a7.27,7.27,0,0,0,1,1.09,1.79,1.79,0,0,0,1.16.55,7.32,7.32,0,0,0,1.85-.34C677.28,366.07,677.89,365.87,678.35,365.68Zm30.57-55.86c0-.54,0-1.09-.07-1.64a1.93,1.93,0,0,0-.48-1.23,22.78,22.78,0,0,0-4.71-2.18,18.42,18.42,0,0,0-6.35-1.23,13.19,13.19,0,0,0-4.44.75l-3.21,1.16a3.68,3.68,0,0,0-.14,1.78,3.64,3.64,0,0,1-.13,1.77,19.26,19.26,0,0,1-.75,2.26,5.19,5.19,0,0,0-.48,1.84l1.36,16.12c0,.45,0,1.23.07,2.32A3.55,3.55,0,0,1,689,334c-.19-.19-.32-.28-.41-.28h-.27c0,.37.08.6.27.69a.43.43,0,0,1,.27.41c-.54.54-1.07,1-1.57,1.43a2.38,2.38,0,0,1-3.27-.07,4,4,0,0,1-.89-1.64,7.71,7.71,0,0,1-.27-2.11v-2c0-1.19.07-2.58.2-4.17s.27-3.23.41-4.92.22-3.36.27-5.05,0-3.21-.07-4.58a22.91,22.91,0,0,0-3.3,6.83q-1.15,3.82-2,6.56t-1.68,6.14q-.88,3.28-1.69,6.49c-.54,2.14-1,4.21-1.28,6.22a36,36,0,0,0-.47,5.46,16.79,16.79,0,0,0,.2,1.77,16.51,16.51,0,0,0,.68,2.8,9.7,9.7,0,0,0,1.28,2.6,2.76,2.76,0,0,0,1.89,1.3,17,17,0,0,0,2.35.13h2.1a16.26,16.26,0,0,0,7.41-1.43,12.3,12.3,0,0,0,4.65-4.17,33.58,33.58,0,0,0,3.34-6.55q1.5-3.83,3.69-8.74.27-.69,1.57-4.44c.86-2.5,1.78-5.26,2.73-8.26s1.82-5.92,2.6-8.75A26.87,26.87,0,0,0,708.92,309.82ZM678.35,383.3a8.4,8.4,0,0,0-1.36-3.48,17.89,17.89,0,0,0-2.31-3.08c.54,1,1.18,2.12,1.9,3.35S677.9,382.39,678.35,383.3Zm3.74-80a12.79,12.79,0,0,1-1.87,1.5,11.47,11.47,0,0,0-1.73,1.36v1.64a11,11,0,0,0,1.87-2.11C681,304.79,681.54,304,682.09,303.27Zm-1.58,97v-8.75h-.68v8.75Zm-.27,11.88a3.5,3.5,0,0,0,.27-2.67c-.27-.86-.5-1.61-.68-2.25,0,.73,0,1.55.07,2.46A11.87,11.87,0,0,0,680.24,412.12Zm2.25-117.87-.13-.54-2.26,1.23v.41Zm4.17,67.06a18.83,18.83,0,0,1-2.94.34c-1.05.05-2.07.12-3.07.21a11.18,11.18,0,0,1,1.91.2,9.85,9.85,0,0,0,1.77.21,2.32,2.32,0,0,0,1.23-.34A12.21,12.21,0,0,1,686.66,361.31ZM685,376.61l-.41-.41-1.47,1.64.27.41Zm3.28,3.82v-1.91a5.36,5.36,0,0,0-.69-.55,2,2,0,0,0-1.09-.27,6.34,6.34,0,0,0-1.3.82,4.15,4.15,0,0,0-1.57,1.91,12.68,12.68,0,0,0,1,1.16,1.55,1.55,0,0,0,1.16.48,3.66,3.66,0,0,0,1.23-.55A3.07,3.07,0,0,0,688.3,380.43Zm-3.69-45.75a4.15,4.15,0,0,0,.07-2,14.79,14.79,0,0,0-.48-2,5.71,5.71,0,0,0-.34,2.12C683.81,333.88,684.06,334.5,684.61,334.68Zm.41-22.81h-.55l-.41,11.34h.68ZM688.71,366l-.28-.55-3.28,1.91.28.55Zm2.18,32.91a1.71,1.71,0,0,0-.14-1.16,3,3,0,0,0-.54-.89,5.42,5.42,0,0,0,.13,1.16A1.38,1.38,0,0,0,690.89,398.87Zm4.78-116.5a10.9,10.9,0,0,1-1.64.48,6.15,6.15,0,0,0-1.5.48,6.53,6.53,0,0,1,1.5.2,5.72,5.72,0,0,0,1.37.21,2.27,2.27,0,0,1,.13-.69A2.28,2.28,0,0,0,695.67,282.37Zm.68,72.66-.54-.27-1.51,2.32.41.27Zm1.78-2.19-.55-.27-1.23,1.64.55.27Zm5.19-56.68v-.68h-2.05v.68Zm6.83-7.1a7.91,7.91,0,0,0-1.16-.95,2.27,2.27,0,0,0-1.3-.41,9.21,9.21,0,0,0-2.53.68,22.27,22.27,0,0,1-3.21,1,36.5,36.5,0,0,1,4.44-.28Zm-1.91,7.1v-.54l-1.64-.41v.54Zm4.23,16.39-5.05,16.8a33.67,33.67,0,0,0,1.57-3.82c.5-1.46,1-3,1.36-4.58s.8-3.11,1.16-4.57S712.2,313.65,712.47,312.55Zm3.14-12.15-1.23-1.23-.41.41,1.23,1.23Zm-.68,6.69-.41-1.09-.55.27.41.82Zm2.73-16.93-2-2.05A4.5,4.5,0,0,0,717.66,290.16Zm.41,26.76a8.79,8.79,0,0,0-.41-2.11,7.93,7.93,0,0,0-1-2.26c.18,1.92.28,3.85.28,5.81a21.47,21.47,0,0,1-.55,5.12c.36-1.18.73-2.46,1.09-3.82A13.26,13.26,0,0,0,718.07,316.92Zm9.15-18.3c-.27-1.18-.62-2.48-1-3.89s-1-2.16-1.71-2.25a10.17,10.17,0,0,0,1.23,3.34C726.35,297,726.85,297.9,727.22,298.62Z" transform="translate(-339.26 -277.45)"/><path class="cls-1" d="M810.53,303.4a15.62,15.62,0,0,1-.41,3,31,31,0,0,0-.55,3.28,16.69,16.69,0,0,1-1,3.41,18.62,18.62,0,0,1-2.39,4.37c-.46.73-1,1.59-1.5,2.6s-1,1.91-1.51,2.73v.82c.37,0,.57-.07.62-.21a1.34,1.34,0,0,1,.34-.48c-.18,1-.43,2.1-.75,3.28a32.55,32.55,0,0,0-.75,3.55,17.2,17.2,0,0,0-.07,4.17c.14,1.59.25,3.16.34,4.71a34.22,34.22,0,0,1,0,4.3,4.5,4.5,0,0,1-1.09,2.94h-1.23a8.51,8.51,0,0,1-1.3-4.85c0-1.78.16-3.55.34-5.33a50.78,50.78,0,0,0,.28-5.12,6.55,6.55,0,0,0-1.64-4.37,11.47,11.47,0,0,0-2.8,3.21,5.8,5.8,0,0,0-.62,2.46V334a3,3,0,0,1-.82,1.91,3.29,3.29,0,0,1-.75-1.91,8,8,0,0,0-.61-2.46c-1,.73-2,1.52-3.08,2.39s-2.07,1.71-3.07,2.52a17.4,17.4,0,0,0,.21,4c.22,1.42.38,2.71.47,3.9a10.47,10.47,0,0,0,.55,1.7c.27.69.5,1.26.68,1.71q1.36,7,2.74,14.2c.9,4.83,1.82,9.66,2.73,14.48a6.59,6.59,0,0,0,.68,1.71,3.89,3.89,0,0,1,.55,1.71.77.77,0,0,1-.41.75,1.91,1.91,0,0,0-.75.68,3.27,3.27,0,0,0-.48,1.43,6.74,6.74,0,0,0,.41,2.74,10.1,10.1,0,0,0-1.64,2.8,22.39,22.39,0,0,0-.89,2.86q-.35,1.44-.75,2.73a9.69,9.69,0,0,1-1.23,2.53,4.93,4.93,0,0,0-.82-.89,8,8,0,0,0-1-.75,3.29,3.29,0,0,0-.68-2,2.29,2.29,0,0,0-1.91-1.36,1.83,1.83,0,0,0-1.57.89,2.87,2.87,0,0,0-.62,1.57v8.74c0,.18,0,.61.07,1.29s.12,1.44.21,2.26.16,1.68.2,2.59.07,1.69.07,2.32l-.68-.68a.72.72,0,0,0,.07.89,1.78,1.78,0,0,1,.34,1,2.69,2.69,0,0,1-2.19,1.51c-1.18,0-1.82-.8-1.91-2.39a52.77,52.77,0,0,1,.07-5.94q.21-3.56.34-7.58a18.83,18.83,0,0,0-1.09-7.31,1.16,1.16,0,0,0-.48-.48,3.66,3.66,0,0,1-.62-.48,7.8,7.8,0,0,0-.2-1.64,4.05,4.05,0,0,0-.75-1.64l-1.3,1-1.3,1a1.47,1.47,0,0,1-1-1.09,9.79,9.79,0,0,1-.27-1.84c-.05-.69-.07-1.37-.07-2.05a5.94,5.94,0,0,0-.27-1.85,31.52,31.52,0,0,0-2.46-5.12,23,23,0,0,1-2.33-5.26,11.57,11.57,0,0,1-.61-3.48,11.57,11.57,0,0,0-.61-3.48c-.82-2.46-1.49-4.62-2-6.49s-.92-3.64-1.23-5.32-.6-3.35-.82-5-.53-3.37-.89-5.19c-1.19-.18-2.23-.32-3.14-.41s-2.32-.27-4.24-.55l-7,29.23v11.47a3.36,3.36,0,0,0-2.19-1.22,2.93,2.93,0,0,0-2,1,18.26,18.26,0,0,0-1.91,2.25,21.08,21.08,0,0,0-1.5,2.39,13.69,13.69,0,0,0-.75,1.57,11.72,11.72,0,0,0-1.16,5.4c0,1.86.15,3.69.34,5.46s.29,3.46.34,5.05a7.47,7.47,0,0,1-1.3,4.44h-1.23l-.95-1a12.42,12.42,0,0,1-.48-4.58c.14-1.41.32-2.8.54-4.16a30.13,30.13,0,0,0,.41-4.1,9.92,9.92,0,0,0-.75-4.1,1.86,1.86,0,0,1-1.36.55c-.64-.27-1-1.05-1-2.32a4.36,4.36,0,0,0-1.43,2.18,15.26,15.26,0,0,0-.48,2.46,14.45,14.45,0,0,0-.07,2.46,6.51,6.51,0,0,1-.2,2.18.44.44,0,0,1-.28.14.4.4,0,0,1-.27.14.38.38,0,0,0-.27.13,4,4,0,0,1-1-3.07,20,20,0,0,0-.2-3.76,6.94,6.94,0,0,1-.34-1.91,9.44,9.44,0,0,0-.35-2.05c-.18-.54-.45-1.27-.81-2.18s-.78-1.37-1.23-1.37a1.3,1.3,0,0,0-.89.21l-.48.48a1.34,1.34,0,0,1-.89-.48,1.5,1.5,0,0,1-.2-.75,7,7,0,0,1,.07-1,3.09,3.09,0,0,0-.07-1.09,3.65,3.65,0,0,1-.48.41,1.89,1.89,0,0,1-.89.13,1.11,1.11,0,0,1-.89-.27,3.52,3.52,0,0,0-.75-.68,14.57,14.57,0,0,1,.62-5.87,51.07,51.07,0,0,0,1.43-5.33.86.86,0,0,0,.41-.48,1.77,1.77,0,0,1,.41-.61c.46-1.46,1-3.28,1.64-5.47s1.32-4.53,2-7,1.43-5.05,2.12-7.65,1.34-5.07,2-7.44c.36-1.37.86-3,1.5-4.85s1.32-3.82,2-5.87,1.43-4.15,2.11-6.29,1.3-4.16,1.85-6.07q.67-2.32,1.5-5.12t1.5-5.6q.69-2.81,1.23-5.33c.36-1.68.64-3.12.82-4.3.18-1.55.32-3.26.41-5.12s.23-3.62.41-5.26a4.07,4.07,0,0,1,.89-1.78,2,2,0,0,1,1.43-.95c.46,0,.64.11.55.34s.09.34.54.34,1.14-.62,2-1.84a19.38,19.38,0,0,1,2.6-2.94,1.79,1.79,0,0,1,.82.89c.18.41.36.79.54,1.16a3.24,3.24,0,0,0,.76-1.78c.13-.82.7-1.23,1.7-1.23a14.58,14.58,0,0,1,1.3,1.5c.41.55.84,1.14,1.3,1.78a5.19,5.19,0,0,0,1.23-1.43c.27-.5.5-1,.68-1.37a3.31,3.31,0,0,1,.68-1,1.47,1.47,0,0,1,1.1-.41c.36,0,.88.41,1.57,1.23a2.4,2.4,0,0,1,.47,2.59v.82c.37,0,.57-.07.62-.21s.29-.2.75-.2a3.69,3.69,0,0,1,1.23.2,3,3,0,0,0,1.09.21v1.23h14.48a.86.86,0,0,0,.27-.62v-.88H786a3.92,3.92,0,0,1,1.91.34,7.5,7.5,0,0,0,2.46.48,37.8,37.8,0,0,1,4,.54,19.6,19.6,0,0,1,4.44,1.44,19,19,0,0,1,4.3,2.73,19.67,19.67,0,0,1,3.69,4.16c.36.64.77,1.46,1.22,2.46s.89,2,1.3,3.08a22.5,22.5,0,0,1,1,3A10.94,10.94,0,0,1,810.53,303.4Zm-81.26,53.27c-.55,2-1.19,4.1-1.92,6.28s-1.36,4.33-1.91,6.42c.37-.91.77-1.93,1.23-3.07s.89-2.28,1.3-3.42a34.09,34.09,0,0,0,1-3.34A8.14,8.14,0,0,0,729.27,356.67Zm.54,39.47h-.54l-.28,1.09.41.14Zm2.05-31.41h-.54L730,369.64h.55Zm0,20.35-.54-.55-.41.41.54.41Zm2.46-1.23a12.89,12.89,0,0,0-.68-1.1,1.55,1.55,0,0,0-1.23-.82c-.46,0-.75.09-.89.28a5.82,5.82,0,0,1-.48.54v1.1a4.82,4.82,0,0,0,.69,1,1.35,1.35,0,0,0,1.09.48,1,1,0,0,0,.95-.48C734,384.55,734.14,384.21,734.32,383.85Zm.55-36.88c-.19,1-.41,2-.69,3.14s-.5,2.05-.68,2.87c.36-1,.68-2.05,1-3.14A12.2,12.2,0,0,0,734.87,347Zm0,35.24-.41-1-.55.27.41.69Zm2.32,16.11V392h-.55v6.28Zm.27,5.06h-.54l-.28,3.55h.55Zm.41-34.42v-1h-.55v1Zm.27-1.37v-.95h-.54v.95Zm3.69-14.2h-.54L738,366.23h.41ZM741,381c-.73.91-1.41,1.84-2,2.8a3.86,3.86,0,0,0-.82,2.52,25.44,25.44,0,0,1,1.37-2.59Q740.33,382.35,741,381Zm1.5-12v-1.23H742V369Zm.28-1.37v-.95h-.55v.95Zm13.93-82.21v-3.56l-9.56,32.1a23,23,0,0,0,3.62-7.1q1-3.56,2-7.1l.75-2.33c.41-1.27.86-2.66,1.36-4.16s.94-3,1.3-4.51A16.2,16.2,0,0,0,756.72,285.38Zm-3.83-1.64v-1.23h-.54v1.23Zm30.87,28.13a4.79,4.79,0,0,0-1.71-3.62,13.25,13.25,0,0,0-4.09-2.52,26.88,26.88,0,0,0-4.85-1.44,21.47,21.47,0,0,0-3.83-.48c-.18,0-.57,0-1.16.07s-1.23.12-1.91.21-1.39.2-2.12.34a12.64,12.64,0,0,0-1.91.48q-1,6.13-2,10.72t-2.32,9.63h7.79a9,9,0,0,0,1.29-.21l2.39-.48L772,324c.9-.19,1.68-.37,2.32-.55a10.83,10.83,0,0,0,2.39-1,8.45,8.45,0,0,0,2-1.36,13.55,13.55,0,0,0,2.66-3.42,11.49,11.49,0,0,0,1.43-3.68,8,8,0,0,1,.62-1A1.92,1.92,0,0,0,783.76,311.87Zm-18,30.18H764.5a4.63,4.63,0,0,0,.28,1.51,5.67,5.67,0,0,0,.54,1.23,2,2,0,0,1-.07-1.37A7.19,7.19,0,0,1,765.73,342.05Zm3.55-49.3a11.84,11.84,0,0,0-1.91.14,11.85,11.85,0,0,1-1.91.13c.45,0,1.07,0,1.84.07s1.16-.07,1.16-.34h.82Zm-2.59-3.41v-.55h-.82v.55ZM768.33,360v-1.23a5.23,5.23,0,0,0-.48-1.85q-.48-1.15-1-2.25a16,16,0,0,1,.88,2.66C767.94,358.24,768.14,359.13,768.33,360Zm2.46-70.89-1.92-.54-.41.54Zm7.92,99.43a27.25,27.25,0,0,0-1.37-2.87,14.66,14.66,0,0,0-1.77-2.59c.45.91,1,1.86,1.63,2.87S778.34,387.76,778.71,388.49Zm.54,1.09v-.82h-.54v.82ZM784,302.17a6.63,6.63,0,0,0-2.25-1.57q-1.57-.75-2.25-1a16,16,0,0,0,2.32,1.36A21.79,21.79,0,0,1,784,302.17ZM780.21,412a6.68,6.68,0,0,0-.07-2.12,10,10,0,0,0-.48-1.84,8.34,8.34,0,0,0,0,2.12A4.71,4.71,0,0,0,780.21,412Zm0-9.7v-6.82h-.55v6.82Zm8.6-15.57a9.94,9.94,0,0,0-1-2.93,26,26,0,0,1-1.43-3.76c-.19-.18-.37-.34-.55-.48a1.71,1.71,0,0,0-1-.2,1.64,1.64,0,0,0-1.64,1.37,4.65,4.65,0,0,0-.27,2,1.54,1.54,0,0,1-.34.48,1.3,1.3,0,0,0-.21.89,4.64,4.64,0,0,0,1.3,3,4.07,4.07,0,0,0,3.21,1.51,3.25,3.25,0,0,0,1.16-.34C788.56,388.06,788.81,387.53,788.81,386.71Zm-4.23-32.77-.27-2.87h-.69l.41,2.87Zm3.28-23.63-.28-.55-2.45,1.5v.41Zm1.64-1.09-.14-.41-1.5.68V330ZM795,303.4a14.5,14.5,0,0,0-1.84-4.91,5.51,5.51,0,0,0-4-2.87,30.48,30.48,0,0,1,3.62,4.1A15,15,0,0,1,795,303.4Zm-4.1,24.86-.27-.41-1.23.68.27.55Zm.69,54.36v-2.19H791v2.19Zm3.41-49h-.55l-.41,1.23.55.13Zm1.91-10.93-.41-.55-.41.41.55.41Zm2.6-1.23a9.09,9.09,0,0,0-.75-1.09,1.69,1.69,0,0,0-1.3-.82c-.46,0-.73.09-.82.27a2,2,0,0,1-.41.55v1.09a5,5,0,0,0,.68,1,1.37,1.37,0,0,0,1.09.47,1,1,0,0,0,1-.47C799.1,322.14,799.28,321.8,799.47,321.43Zm.41-1.64-.41-1-.41.27.41.68Zm2.45,16.12v-6.28h-.68v6.28Zm.28,5h-.55l-.41,3.55h.55Zm4-40.15-.68-1.91-.55.13.82,1.78Z" transform="translate(-339.26 -277.45)"/><path class="cls-1" d="M889.06,296.85c-.18.36-.57,1-1.16,2s-1.21,1.93-1.84,2.93a4.33,4.33,0,0,1,.13,1,2.29,2.29,0,0,1-.27,1,4.71,4.71,0,0,1-3.62,1.64,14.75,14.75,0,0,0-4,.55l-33.19.27q-1.37,4.51-2.18,7.24c-.55,1.82-1,3.32-1.44,4.51s-.73,2.11-1,2.8-.48,1.34-.75,2c.27.18.52.34.75.47a2,2,0,0,0,1,.21H868a12,12,0,0,0,2.25-.34,12,12,0,0,1,2.25-.34,2.13,2.13,0,0,1,1,.2l.75.48-.55,1.91a5.85,5.85,0,0,1-2.32.62,12.11,12.11,0,0,0-2.32.34,2.24,2.24,0,0,0,.89.68c.5.27,1,.57,1.5.89a5.55,5.55,0,0,1,1.3,1.16,1.74,1.74,0,0,1,.27,1.64,2.61,2.61,0,0,1-2.25,2.12,8,8,0,0,0-3.35,1.43.73.73,0,0,0-.2.68,1.65,1.65,0,0,1-.21,1,4.48,4.48,0,0,0-.54.68,2.08,2.08,0,0,1-1,.68,3.36,3.36,0,0,0,1.77.35c.64-.05,1.26-.07,1.85-.07a10.58,10.58,0,0,1,1.71.13,2.88,2.88,0,0,1,1.5.82l-1,3.28a9,9,0,0,1-5.19,2.25c-1.82.14-3.37.21-4.64.21-.19,0-1.28-.07-3.28-.21s-4.16-.29-6.49-.47-4.48-.35-6.48-.48-3.15-.21-3.42-.21h-9l-10.25,38.52a3,3,0,0,1-.88,1,2.09,2.09,0,0,1-1.3.48c-.64,0-1-.57-1.09-1.71a19.89,19.89,0,0,1,.07-3.75c.13-1.37.31-2.64.54-3.83a19.22,19.22,0,0,0,.34-2.05,28.1,28.1,0,0,0-2.18,6.42,33,33,0,0,0-.48,3.83,5.46,5.46,0,0,1-.34,1.91c-.19.36-.73.55-1.64.55-.46,0-.73-.14-.82-.41a1.69,1.69,0,0,0-.41-.69,2.63,2.63,0,0,0-.61,1.23c-.14.55-.3,1.07-.48,1.57a8.65,8.65,0,0,1-.69,1.44,2.17,2.17,0,0,1-1.22,1,1,1,0,0,1-1-.68,4.08,4.08,0,0,1-.27-1.5,7.37,7.37,0,0,1,.2-1.71,6.78,6.78,0,0,1,.48-1.43,21,21,0,0,0,1.09-3.62c.36-1.59.73-3,1.09-4.17a4.14,4.14,0,0,1-1.22-.75,1.84,1.84,0,0,0-1.23-.48,1.91,1.91,0,0,0-1.1.28,1.68,1.68,0,0,1-1,.27c-.19.18-.19.73,0,1.64a12.37,12.37,0,0,0-1.23,1.91c-.28.55-.53,1-.75,1.43a4.42,4.42,0,0,1-.69,1,1.37,1.37,0,0,1-1,.34q-1,0-1-1.5a18.31,18.31,0,0,1,.2-3.42,30.33,30.33,0,0,1,.75-3.68c.32-1.18.52-1.91.62-2.19q.27-2.73.88-5.8c.41-2.05.71-4,.89-5.81l4.65-16c-.1-.27-.35-.38-.76-.34a10.68,10.68,0,0,1-1.29.07,4.26,4.26,0,0,1-1.3-.2,1.1,1.1,0,0,1-.75-.89l.41-1.23a8.12,8.12,0,0,1,2-.82l2.11-.55v-.27a1.13,1.13,0,0,0-.81-.21,2.3,2.3,0,0,1-1-.06.4.4,0,0,1-.27-.14l-.41-.41.41-1.64a5.36,5.36,0,0,1,1.91-.68,5.5,5.5,0,0,0,1.91-.68l1.91-7a7.13,7.13,0,0,0-1.64-.41,2.59,2.59,0,0,1-1.5-.68l.41-1.5a13.29,13.29,0,0,1,2-1,4.84,4.84,0,0,0,1.77-1.09,16.4,16.4,0,0,0,.69-1.92,11.58,11.58,0,0,1,.82-2l4.23-14.34a4.76,4.76,0,0,0-2.12-.62c-.77,0-1.59,0-2.45,0a22.55,22.55,0,0,1-2.6,0,6,6,0,0,1-2.39-.61l.41-1.64a7.51,7.51,0,0,0,1.64-1.16,9.4,9.4,0,0,1,1.5-1.16,19,19,0,0,1,4.3-1.57q2.11-.48,4.44-1.17c.09-.27-.07-.63-.48-1.09a5.84,5.84,0,0,0-1.29-1.09l.41-1.64a15.58,15.58,0,0,0,2.46-1.23c.9-.55,1.63-1,2.18-1.36a2.3,2.3,0,0,0,.61.2.65.65,0,0,0,.62-.2c-.64-.37-1.3-.71-2-1s-1.35-.61-2-.89l.55-2.05a12.33,12.33,0,0,1,4.91-1.16,24.17,24.17,0,0,0,4.92-.61,13.4,13.4,0,0,1,2.25-.41c.87-.09,1.53-.14,2-.14.18,0,.62.05,1.3.14s1.39.2,2.12.34,1.41.25,2,.34a12.17,12.17,0,0,0,1.22.14h43.71a2,2,0,0,1,.41.55,1.63,1.63,0,0,1,0,.95,1.89,1.89,0,0,1-1.3,1.3,9.26,9.26,0,0,1-2.46.41c-1,0-1.93.07-2.93.07a12.79,12.79,0,0,0-2.74.27,10,10,0,0,0,3.35.61,20.44,20.44,0,0,1,3.76.48.81.81,0,0,1,.68.41,1.15,1.15,0,0,1,0,1.09,4.34,4.34,0,0,1-2,2.26,8.73,8.73,0,0,1-3.07,1.43,1.7,1.7,0,0,0,1.09.34c.55.05,1.07.12,1.57.21a3,3,0,0,1,1.23.48A1.09,1.09,0,0,1,889.06,296.85ZM815.17,344a32.37,32.37,0,0,0-2.93,7.78c-.69,2.82-1.16,5.24-1.44,7.24.91-3,1.64-5.44,2.19-7.31s1-3.32,1.23-4.37.47-1.79.61-2.25S815.08,344.24,815.17,344Zm3.76-15.51a13.26,13.26,0,0,0-.48,1.44,2.13,2.13,0,0,0,1.16-1.57,2.59,2.59,0,0,0-.07-1.16A6.59,6.59,0,0,0,818.93,328.46Zm2.25-6.07,2.46-9.15h-.55l-2.45,9.15Zm7.65,22.26h-.55l-1.09,2.59h.68Zm.55-.41.13-1H829l-.28,1Zm2.32-24.17h-.55l-1.09,2.59h.55Zm4.78-2.46q.67-2.33,1.23-4.78c.36-1.64.63-3,.82-4.1a11.09,11.09,0,0,0-1.44,4.64A20.17,20.17,0,0,1,836.48,317.61Zm19.39-18.3.14-.55-8.61-.41-.27.68Zm-.27,30,.27-.54L854,328.4l-.14.54Zm27.31-31.41a34,34,0,0,1-3.41-.2c-1.28-.14-2.14-.21-2.6-.21a2.32,2.32,0,0,0-1.29.41,2.15,2.15,0,0,1-1.16.41c-1.55.18-3.14.3-4.78.34s-3.24.16-4.78.34h5.05a56.41,56.41,0,0,0,6.69-.13A38.37,38.37,0,0,0,882.91,297.94Zm-4.23-6.15.14-.54-11.2-1.09-.14.54Z" transform="translate(-339.26 -277.45)"/><path class="cls-1" d="M944.78,361a4.18,4.18,0,0,1-1.77.89,8.18,8.18,0,0,0-2,.75,3.53,3.53,0,0,0,.95.54c.28.09.53.16.76.21a.81.81,0,0,1,.54.41,2.75,2.75,0,0,1,.21,1.3,2,2,0,0,1-1.37,1.77,12,12,0,0,1-3.07,1c-1.14.22-2.19.4-3.14.54s-1.48.21-1.57.21c-.1.18-.21.25-.35.2s-.29,0-.47.21a2.32,2.32,0,0,0,1,.34c.41,0,.82.07,1.23.07a5.71,5.71,0,0,1,1.23.13,2.32,2.32,0,0,1,1.16.69,1.2,1.2,0,0,1-.14,1.22,4.81,4.81,0,0,0-.54,1.23,1.92,1.92,0,0,1,.68,1.57c0,.69.23,1,.68,1h1.78l.41.41v1.64a5.9,5.9,0,0,1-.55.48,4.53,4.53,0,0,0-.54.47c-1.83.1-3.94.19-6.36.28a47.52,47.52,0,0,0-6.62.68,7.79,7.79,0,0,0-2.8,1.16,10.31,10.31,0,0,0-2.8,2.39,13.43,13.43,0,0,0-3,5.4,26.36,26.36,0,0,0-1,6,43.91,43.91,0,0,0,.14,6.08c.18,2,.27,3.87.27,5.6a3.86,3.86,0,0,1-.41,1.57,13,13,0,0,1-1,1.71h-1.23a7.11,7.11,0,0,1-1.64-4.58,35.79,35.79,0,0,1,.41-5.32,45.4,45.4,0,0,0,.47-5.47,7.46,7.46,0,0,0-1.57-4.84h-1.36a3.35,3.35,0,0,0-1.3,1.84,13.52,13.52,0,0,0-.48,2.53c-.09.91-.16,1.84-.2,2.8a11.21,11.21,0,0,1-.34,2.39h-.28l-.41.41-.27-.28a.38.38,0,0,0-.27-.13.42.42,0,0,1-.28-.14,32.27,32.27,0,0,1-.61-3.69c-.14-1.27-.3-2.55-.48-3.82a18.35,18.35,0,0,0-.95-3.76,14.09,14.09,0,0,0-2.05-3.62c-.64-.82-1.16-1.52-1.57-2.11a2.38,2.38,0,0,0-2.12-.89,5.27,5.27,0,0,0-3.62,1.57,6,6,0,0,0-2,3.76,21.75,21.75,0,0,0,.07,5.18c.22,1.64.43,3.21.61,4.72a35.71,35.71,0,0,1,.28,4.23,6.38,6.38,0,0,1-1.1,3.62,5,5,0,0,1-1.57,1.23,3.89,3.89,0,0,1-1.71.55,2.76,2.76,0,0,1-2.59-1.51,8.75,8.75,0,0,1-1-3.34,17.25,17.25,0,0,1-.07-3.42c.09-1.05.13-1.66.13-1.84.09-1.09.16-2.3.21-3.62a20,20,0,0,0-.21-3.76,13.57,13.57,0,0,0-1.22-3.62,6.23,6.23,0,0,0-3.69-3.34,5.17,5.17,0,0,0-1.64-.34,12.3,12.3,0,0,1-1.85-.28,3.7,3.7,0,0,1-1.5-.68,1.86,1.86,0,0,1-.61-1.57c0-.36.29-.73.89-1.09s.84-.73.75-1.1a18.64,18.64,0,0,1-.34-6.21,59.47,59.47,0,0,1,1-6.42c.45-2.14,1-4.21,1.5-6.21s1-3.92,1.37-5.74a25.35,25.35,0,0,1,1.09-3.82c.55-1.55,1.05-3,1.5-4.37q1.92-7,4-14.48T893,313.78c.36-1.09.7-2.3,1-3.62s.64-2.66,1-4,.64-2.68,1-4a33.64,33.64,0,0,1,1-3.41c.55-1.55,1.3-3.41,2.25-5.6a56.32,56.32,0,0,0,2.39-6.42c0-.18,0-.48.07-.89a6.06,6.06,0,0,1,.28-1.23,2.49,2.49,0,0,1,.61-1,1.49,1.49,0,0,1,1.09-.41,5.34,5.34,0,0,1,1.44.21,5.66,5.66,0,0,0,1.43.2,1.35,1.35,0,0,0,1-.41,3.65,3.65,0,0,1,1-.68A2.72,2.72,0,0,1,910,284.9a14.92,14.92,0,0,0,.54,3.07,9.08,9.08,0,0,0,1-2.53q.27-1.29.48-2.46a12.26,12.26,0,0,1,.54-2.11,2.28,2.28,0,0,1,1.3-1.37,1.9,1.9,0,0,1,1.43,1.3,4.39,4.39,0,0,1,0,1.91,16.74,16.74,0,0,1-.54,2.05,5.51,5.51,0,0,0-.34,1.71v2.59a2.87,2.87,0,0,0,1.09-1.23c.27-.54.52-1.11.75-1.7a15.67,15.67,0,0,1,.82-1.78,3.89,3.89,0,0,1,1.3-1.43h1.5a1.72,1.72,0,0,1,.14,1.23,2.7,2.7,0,0,0,.13,1.5c.28-.55.55-1.07.82-1.57a3,3,0,0,1,1.09-1.16h1.51c.27.18.41.63.41,1.36a4.34,4.34,0,0,1-.35,1.16c-.22.6-.5,1.26-.81,2l-1,2.33a16.58,16.58,0,0,0-.82,2.18q-.68,2.32-1.64,5.67c-.64,2.23-1.29,4.57-2,7s-1.39,4.92-2.11,7.38-1.42,4.78-2,7a2.19,2.19,0,0,0,0,1.57c.18.69.32,1.26.41,1.71a3.32,3.32,0,0,1,.07,1.78c-.14.73-.26,1.32-.35,1.77q-1.9,7.92-4,16T905.18,358l3.21.35c1.22.13,2.43.25,3.61.34s2.21.16,3.08.2,1.38.07,1.57.07l12.43-1.37c.18,0,.61.05,1.29.14s1.46.21,2.33.34l2.8.48c1,.18,1.86.32,2.59.41a20.84,20.84,0,0,0,2.94.07c1.13-.05,2.2-.07,3.21-.07l.54.41ZM888.51,403l-.41-1.51h-.41L888,403ZM891,335.09a29.65,29.65,0,0,0-1,3.21,12.54,12.54,0,0,0-.41,2.93c.18-1,.41-2,.68-3.14S890.79,336,891,335.09Zm3.28,66.51-.55-1.91a10.2,10.2,0,0,1-.75,1.23,1.72,1.72,0,0,0-.34,1.36v1.1a5.43,5.43,0,0,0,1-1A6.17,6.17,0,0,1,894.25,401.6Zm-.27-5.74-.69-6h-.54l.68,6Zm4.23-16.79A3.51,3.51,0,0,0,896,380a6.56,6.56,0,0,0-1.29,1.85,12,12,0,0,0-.75,2c-.19.69-.37,1.3-.55,1.85a19,19,0,0,1,.75-2.12,16.42,16.42,0,0,1,1.09-2.18,7.29,7.29,0,0,1,1.37-1.71A2.28,2.28,0,0,1,898.21,379.07Zm-1.5-55.32v-1.23h-.55v1.23Zm1.77,14.34v-1.91h-.68v1.91Zm8.61-1.64c-.73,2.65-1.44,5.26-2.12,7.86s-1.48,5.17-2.39,7.71a14.11,14.11,0,0,1-1.3,2.94,5.61,5.61,0,0,0-.88,2.25v1.1h1.22Zm-.28-49.16a2,2,0,0,0-.54-1.64,21.26,21.26,0,0,0-2.6,6.28,66.89,66.89,0,0,1-1.91,6.56,1.46,1.46,0,0,1,1-.28h1.29c.28-.82.57-1.82.89-3s.62-2.32.89-3.42.5-2.07.68-2.93A12.44,12.44,0,0,0,906.81,287.29Zm-3.27,24.17v-.82H903v.82Zm4.09,25v-1.22h-.54v1.22Zm.41-1.36v-1.23h-.68v1.23Zm.28-1.37v-1h-.55v1Zm1.09,63h-.55l-.41,1.1.41.13Zm1.91-11.33-.41-.41-.41.27.55.55Zm2.73-1.23a9.15,9.15,0,0,1-.82-1.09,1.5,1.5,0,0,0-1.23-.82c-.45,0-.75.09-.88.27s-.3.36-.48.55v1.09a3.94,3.94,0,0,0,.75,1,1.57,1.57,0,0,0,1.16.48,1,1,0,0,0,1-.48Q913.78,384.66,914.05,384.12Zm-1.64-83.86v-.95h-.54v.95Zm.41-1.09v-.82h-.68v.82Zm1.64,83.31-.41-1-.54.14.41.82Zm2.46,16.39v-6.28h-.68v6.28Zm.27,5.33h-.54l-.41,3.55h.68Zm3.56-22.95c-.64.82-1.3,1.75-2,2.8a4.18,4.18,0,0,0-.88,2.66,23.07,23.07,0,0,1,1.36-2.8C919.79,383,920.29,382.07,920.75,381.25ZM928.26,366v-.55h-4V366Z" transform="translate(-339.26 -277.45)"/><path class="cls-1" d="M996.68,282.92a15.26,15.26,0,0,1-.75,2.32q-.75,2-1.78,4.92t-2,5.94a49.12,49.12,0,0,0-1.36,5.25,17.71,17.71,0,0,0-.27,3.35,25.07,25.07,0,0,1-.28,3.76,36.32,36.32,0,0,1-2.12,6.35,56,56,0,0,0-2.66,8.26c-.27.91-.73,2.57-1.36,5s-1.35,5.05-2.12,7.92-1.53,5.69-2.25,8.46-1.28,5-1.64,6.63q-1.36,6.42-3.42,13.52t-3.55,13.11a4.88,4.88,0,0,1-1.36,2.19h-1.51a.72.72,0,0,0-.48-.28c-.13,0-.2-.22-.2-.68a11.37,11.37,0,0,1,.68-2.73,30.08,30.08,0,0,0,1.1-4.51v-.82a27.48,27.48,0,0,0-1.71,4.44c-.5,1.69-.94,3.3-1.3,4.85a1.93,1.93,0,0,0,.07,1.5,5.26,5.26,0,0,1,.34,1.78,4.21,4.21,0,0,1-.48,1.7,4.25,4.25,0,0,0-.48,1.71,2.36,2.36,0,0,0-1.77-.68,3,3,0,0,0-2.12.68,3.46,3.46,0,0,0-1,1.64,8.73,8.73,0,0,0-.34,2c0,.68-.07,1.21-.07,1.57l1.36,14.61a11.2,11.2,0,0,1-.2,2,10.69,10.69,0,0,1-.62,2.19,4.59,4.59,0,0,1-1.16,1.71,2.65,2.65,0,0,1-1.84.68,2,2,0,0,1-1.71-.82,5.42,5.42,0,0,1-.89-1.91,8.57,8.57,0,0,1-.27-2.05v-1.37l1.37-15a14.25,14.25,0,0,0-.21-2.25,8.42,8.42,0,0,0-.82-2.53,7.27,7.27,0,0,0-1.57-2.12,3.47,3.47,0,0,0-2.46-.88,1.84,1.84,0,0,0-.88.13,3.36,3.36,0,0,1-1.3.14,1.82,1.82,0,0,1-.21-1.16,2.56,2.56,0,0,1,.48-1.3,13.31,13.31,0,0,0-1.3-1.64,2.32,2.32,0,0,1-.75-1.5,17.29,17.29,0,0,1,.28-1.84c.18-1,.38-2.26.61-3.62s.5-2.74.82-4.1.61-2.46.89-3.28a6.13,6.13,0,0,0-.55-1.3,2.1,2.1,0,0,1-.27-1.43c.36-1.37.91-3.14,1.64-5.33s1.55-4.52,2.46-7l2.8-7.72q1.42-4,2.66-7.24,2.32-6.56,4-13t3.89-13a7.16,7.16,0,0,1,1.16-2,9,9,0,0,0,1.3-2.25,12.55,12.55,0,0,0,.41-3.49c0-1.41.07-2.87.2-4.37a18.06,18.06,0,0,1,1-4.37,7.65,7.65,0,0,1,2.8-3.62c.18-1,.39-2.05.61-3.14a26.17,26.17,0,0,0,.48-3.41,3,3,0,0,1,.75-1.23,10,10,0,0,1,1.3-1.23h.82a1.61,1.61,0,0,0,.41.27.77.77,0,0,1,.34.27.89.89,0,0,0,.21.28,6.65,6.65,0,0,0-.41,1.64,16.72,16.72,0,0,1-.41,1.91l-.14.14c0,.09.18.13.55.13a1.55,1.55,0,0,0,.95-.48c.37-.31.75-.66,1.16-1s.82-.7,1.23-1a1.92,1.92,0,0,1,.89-.47c.45,0,.7.11.75.34s.3.34.75.34a6.75,6.75,0,0,0,2.39-.82,6.81,6.81,0,0,1,2.39-.82,1.7,1.7,0,0,1,1.44.48c.22.32.43.48.61.48a4.28,4.28,0,0,0,2.12-1.16,4.16,4.16,0,0,1,2.12-1.16,1.42,1.42,0,0,1,1.36,1.09A5.31,5.31,0,0,1,996.68,282.92Zm-41,102.84a2,2,0,0,0-.41-1,7.39,7.39,0,0,0-1-1.16c-.36-.36-.7-.68-1-.95s-.53-.41-.62-.41h-1.5a8.13,8.13,0,0,0,2.19,1.29A4.53,4.53,0,0,1,955.71,385.76Zm1.09,25.54a3.78,3.78,0,0,0,.07-1.91,10.07,10.07,0,0,0-.48-1.78,4.16,4.16,0,0,0-.27,1.91C956.12,410.52,956.34,411.11,956.8,411.3Zm.55-21.31h-.55l-.41,10.52h.55Zm1.23-14.61a.83.83,0,0,0-.28-.55l-.27-.27a6.9,6.9,0,0,1-.14,1.36,1,1,0,0,0,.14,1,.53.53,0,0,0,.41-.14c.09,0,.14,0,.14-.13Zm2.45,35-.54-.13-.41.81.55.28Zm4.65-58.45h-.55l-3,11.61h.54Zm15.57-63a48.25,48.25,0,0,0-2.32,6.62c-.64,2.32-1.23,4.67-1.78,7a23,23,0,0,1,1.16-3q.75-1.63,1.5-3.48a29.56,29.56,0,0,0,1.23-3.69A8.34,8.34,0,0,0,981.25,288.93Zm1.64,15.43a18.57,18.57,0,0,1-.35,3.55,16.56,16.56,0,0,1-1,3.41,3.14,3.14,0,0,1-.61,1,2.52,2.52,0,0,0-.48.61,55.13,55.13,0,0,0-1.5,5.47c-.46,2-.82,3.78-1.1,5.32q2.05-5,3.55-9.83A31.48,31.48,0,0,0,982.89,304.36Zm.54-.14v-1h-.54v1Zm2.87-10.65a18.61,18.61,0,0,0-1.36,3.14,27.22,27.22,0,0,0-.82,2.87c.36-1,.72-2.05,1.09-3.14S985.94,294.39,986.3,293.57Zm3-7a15.13,15.13,0,0,1-1.57.82,1,1,0,0,0-.62,1.37,5.05,5.05,0,0,0,1.23-1A5.18,5.18,0,0,0,989.31,286.6Z" transform="translate(-339.26 -277.45)"/><path class="cls-1" d="M1086,280.05a3.13,3.13,0,0,1-.82,2.32q-2.19,2.46-4.92,5.26l-5.46,5.6q-2.73,2.81-5.19,5.53a40.38,40.38,0,0,0-4.1,5.33q-2.17,3.27-5.46,7.58t-6.35,8.12q-3.08,3.82-5.26,6.63a18.24,18.24,0,0,0-2.18,3.07,3.09,3.09,0,0,0,.34,1,13.65,13.65,0,0,0,.89,1.64,18.18,18.18,0,0,1,1,1.78,16.55,16.55,0,0,1,.69,1.71q.67,1.91,1.5,4.64a60.79,60.79,0,0,0,2,5.73c.63,1.46,1.48,3.19,2.52,5.19s1.94,3.92,2.67,5.74q1.23,3.56,2.52,7.24c.87,2.46,1.66,5,2.39,7.51a10.52,10.52,0,0,1,.28,1.16c.09.5.18,1,.27,1.57s.16,1.07.2,1.57.07.85.07,1v2.87a1.15,1.15,0,0,0-.61.2,2.93,2.93,0,0,0-.62.48,1.9,1.9,0,0,0-.27-1.64,2.74,2.74,0,0,0-.48.68,2.36,2.36,0,0,1-.48.69,3.37,3.37,0,0,1-1-1.58,4.27,4.27,0,0,0-.69-1.43,12.51,12.51,0,0,0-3.48,4.92,26.64,26.64,0,0,0-1.43,5.53c-.27,1.86-.46,3.66-.55,5.39a29.51,29.51,0,0,1-.54,4.51.91.91,0,0,0-.69,0,1.6,1.6,0,0,1-1.09-.14c-.18-1.55-.32-3.12-.41-4.71s-.23-3.16-.41-4.71a2.12,2.12,0,0,0-.82-1.09c-.45-.37-.91-.78-1.36-1.23-.19-.09-.26-.14-.21-.14h-.61a2,2,0,0,0-2.05,1.57,12.87,12.87,0,0,0-.68,3.49,24.07,24.07,0,0,0,.27,5.05,48,48,0,0,1,.41,6.14v5.88l-.41-.41a1.09,1.09,0,0,0-.07,1,2,2,0,0,1,.07,1.16,3.55,3.55,0,0,1-.82,1,1.88,1.88,0,0,1-1.23.47c-.73,0-1.25-.47-1.57-1.43s-.57-1.75-.75-2.39a8.34,8.34,0,0,1,0-3.07c.18-1.05.32-2.07.41-3.08q.27-3.14.48-6.62a24.78,24.78,0,0,0-.48-6.62,19.42,19.42,0,0,0-1.23-3.76q-1-2.25-2-4.85a3.85,3.85,0,0,0-.89-1.09,3.29,3.29,0,0,1-.89-1.23q-.68-1.5-1.5-3a13.74,13.74,0,0,1-1.23-3.15,38.16,38.16,0,0,1-1.16-7.64,47.31,47.31,0,0,0-1-7.65c-.28-1.09-.62-2.21-1-3.35a19.51,19.51,0,0,0-1.7-3.48l-32.65,32.91h-1.5a4.79,4.79,0,0,1-.27-1.16,1.6,1.6,0,0,1,.82-1.57c-.19-.18-.25-.25-.21-.2s-.16.07-.61.07a3.58,3.58,0,0,0-1.3.75c-.68.5-1.43,1.07-2.25,1.7s-1.57,1.21-2.26,1.71a3.66,3.66,0,0,1-1.29.75q-1.1,0-1.23-.27a10,10,0,0,1-.41-1.09c-.46.36-1,.82-1.57,1.36a9,9,0,0,1-2,1.37q-.29.13-.75-.27a1.38,1.38,0,0,1-.48-1.1,2.32,2.32,0,0,1,.61-1q.62-.75,1.5-1.71c.6-.64,1.21-1.32,1.85-2s1.23-1.36,1.77-1.91a6.9,6.9,0,0,0-1.43.82,1.88,1.88,0,0,1-2.32.27,2.7,2.7,0,0,1-1.16-1.36.84.84,0,0,0-.48.13,1.74,1.74,0,0,1-.89.14,1.55,1.55,0,0,1-1-.41,1.35,1.35,0,0,1-.48-1.09,1.37,1.37,0,0,1,.2-.89,1.67,1.67,0,0,0,.34-.48q4.51-4.36,9.63-9.42t9.5-10.24a23,23,0,0,0,1.84-2.6,21.89,21.89,0,0,1,2.39-3.14c1.73-1.82,3.66-3.76,5.8-5.8a72.38,72.38,0,0,0,5.81-6.22c.63-.82,1.36-1.73,2.18-2.73s1.57-2,2.26-2.94,1.27-1.82,1.77-2.59a4.45,4.45,0,0,0,.75-1.44,10,10,0,0,0-.82-2q-.81-1.78-1.91-4.17t-2-4.71c-.63-1.55-1.09-2.73-1.36-3.55-.46-1.46-1-3.1-1.64-4.92s-1.23-3.41-1.78-4.78a7.05,7.05,0,0,1-.41-2.46,6.36,6.36,0,0,0-.54-2.59c-.46-1.19-1-2.57-1.64-4.17s-1.28-3.14-1.91-4.64-1.19-2.82-1.64-4a10.18,10.18,0,0,1-.68-2,1.7,1.7,0,0,1,.61-1.16,1.83,1.83,0,0,1,1.3-.62,2.79,2.79,0,0,1,2.11,1.37,7.57,7.57,0,0,0,1.3,1.5,1.52,1.52,0,0,0,.68.14,1.57,1.57,0,0,1,.69.13c.63,1,1.2,2,1.7,2.94a24.71,24.71,0,0,0,1.85,2.94,6.85,6.85,0,0,0,.75-2.12,3.1,3.1,0,0,0-.07-1.16,5.26,5.26,0,0,0-.34-.82,2.8,2.8,0,0,1-.21-1.23,3.05,3.05,0,0,1,.55-1.43,1.49,1.49,0,0,1,1.23-.89c.45,0,.75.11.89.34a2.59,2.59,0,0,0,.48.61,4.29,4.29,0,0,0,1-1.84,1.68,1.68,0,0,1,1.84-1.16,5,5,0,0,1,2,1,7.68,7.68,0,0,1,2.19,2.12,40,40,0,0,1,2.66,6,44.9,44.9,0,0,0,2.94,6.55,8.31,8.31,0,0,0-.75-2.66c-.51-1.23-1-2.55-1.64-4s-1.14-2.71-1.64-3.89a8.18,8.18,0,0,1-.75-2.32,1.58,1.58,0,0,1,.75-1.51,2.77,2.77,0,0,1,1.16-.41c.36,0,.75.28,1.16.82a8.48,8.48,0,0,1,1,1.85c.27.68.59,1.62.95,2.8q.54,1.23,1.5,3a11,11,0,0,1,1.23,3.42c.46,2.27.84,4.64,1.16,7.1s.71,4.92,1.16,7.37l24-27h1.37a2.82,2.82,0,0,1,.68,2,2.51,2.51,0,0,1,1.09-.61,4.4,4.4,0,0,0,1.1-.48,5.44,5.44,0,0,0,1.43-1.44,6.51,6.51,0,0,1,1.3-1.43h1.09a1.14,1.14,0,0,0,.55.34q.27.07.27.75a2.42,2.42,0,0,1-.41,1,11.31,11.31,0,0,1-1,1.36,13.58,13.58,0,0,0-1,1.37,2.27,2.27,0,0,0-.41,1,3.17,3.17,0,0,0,.27,1.29,3.22,3.22,0,0,1,.27,1.3,34.37,34.37,0,0,0,2.39-2.66l2.26-2.8a24.34,24.34,0,0,1,2.32-2.53,8,8,0,0,1,2.73-1.71,3.44,3.44,0,0,0,.55.48,1.1,1.1,0,0,1,.27.89,2.73,2.73,0,0,1-.55,1.09c-.36.55-.82,1.16-1.36,1.85s-1.12,1.41-1.71,2.18a18,18,0,0,1-1.71,2l.48.48a1.3,1.3,0,0,1,.21.89,3.29,3.29,0,0,1-.69,1.7c-.45.69-1,1.42-1.57,2.19s-1.14,1.5-1.64,2.18a4.52,4.52,0,0,0-.88,1.85l15.84-16.12h1.5c.18.19.3.28.34.28S1086,279.59,1086,280.05Zm-87.68,95.06-.41-.28-1.78,2.46.41.41Zm17.34-22.27-.41-.41-1.77,2.6.41.27Zm.41-49.16c-.09-.37-.2-.8-.34-1.3a11.05,11.05,0,0,0-.48-1.44l-.54-1.63a9.36,9.36,0,0,0,.41,1.77A10.61,10.61,0,0,0,1016.07,303.68Zm7.79,19.8a30.61,30.61,0,0,0-2.25-6.28c-1.05-2.19-1.94-4.14-2.67-5.88a21.92,21.92,0,0,1-1-3.07,13.92,13.92,0,0,0-1-2.8,27.66,27.66,0,0,0,2.39,8.13Q1021.4,318,1023.86,323.48Zm-1.09-27.73a15,15,0,0,0-1.1-5.32,25.71,25.71,0,0,1,.41,2.73A8.14,8.14,0,0,0,1022.77,295.75Zm15.43,75.94a7.28,7.28,0,0,0-.55-3.35c-.45-1.13-.86-2.16-1.23-3.07a13.81,13.81,0,0,1,.75,3.28A7.77,7.77,0,0,0,1038.2,371.69Zm12.7-75.12q-3.56,3.56-7.1,7.52t-5.87,7a18,18,0,0,0,3.41-2.66,44.73,44.73,0,0,0,3.41-3.69c1.1-1.32,2.17-2.68,3.21-4.1S1050,297.85,1050.9,296.57Zm-10.11,85.91a4.05,4.05,0,0,0-1-2.94,9.38,9.38,0,0,1-1.3-1.84c.46,1,.87,1.87,1.23,2.6S1040.43,381.75,1040.79,382.48Zm1.92,15.71V390h-.55v8.2Zm-.28,11.06a3.13,3.13,0,0,0,.34-2.46c-.22-.82-.43-1.55-.61-2.18V407A8.36,8.36,0,0,0,1042.43,409.25Zm4.65-33.05-.41-.41-1.5,1.5.4.41Zm2.87,3.55V378a3.16,3.16,0,0,0-.62-.47,2,2,0,0,0-1-.21,5.06,5.06,0,0,0-1.16.75,5.53,5.53,0,0,0-1.58,1.71l1,1a1.43,1.43,0,0,0,1,.48,3.26,3.26,0,0,0,1.16-.54A4.07,4.07,0,0,0,1050,379.75Zm2.45-21.85-.41-1.37-.41.14.28,1.23Zm0,39.06a1.77,1.77,0,0,0-.13-1.16,3.2,3.2,0,0,0-.55-.89,5.47,5.47,0,0,0,.14,1.16A1.39,1.39,0,0,0,1052.4,397Zm.69-37.83-.41-1.23-.55.13.41,1.1Zm4.64-71.16-.41-.14-.41.82.41.14Zm1.37-1.23-.41-.41-.82.82.41.41Zm.68-1.09-.55-.27-.41.95.55.14Zm7.1,1.5c-.64.73-1.34,1.48-2.12,2.25l-2.32,2.33a29.08,29.08,0,0,0-2,2.25,16.74,16.74,0,0,0-1.29,1.77l2.18-2.18c.82-.82,1.59-1.62,2.32-2.39s1.39-1.52,2-2.25A16,16,0,0,0,1066.88,287.15Zm-5.46-3.14-.41-.27-1.09,1.09.27.41Zm.68,14.61-.55-.13-.41.82.55.13Zm.68-.95-.54-.28-.41,1,.54.14Zm.69-1.1-.55-.13-.41.82.55.27Z" transform="translate(-339.26 -277.45)"/></svg>